<?xml version="1.0" encoding="UTF-8" standalone="no"?><svg xmlns="http://www.w3.org/2000/svg" xmlns:xlink="http://www.w3.org/1999/xlink" contentScriptType="application/ecmascript" contentStyleType="text/css" height="1818px" preserveAspectRatio="none" style="width:2469px;height:1818px;background:#1E1E1E;" version="1.1" viewBox="0 0 2469 1818" width="2469px" zoomAndPan="magnify"><defs/><g><text fill="#FFFFFF" font-family="sans-serif" font-size="20" lengthAdjust="spacingAndGlyphs" textLength="258" x="1108.5" y="21.38">Golf Course Design Pipeline</text><!--MD5=[7eae72411358bb0e97d552d274c54d8a]
cluster Gather public source data--><path d="M546.5,157.24 L797.5,157.24 A9,9 0 0 1 803.5,163.24 L810.5,190.4799 L1093.5,190.4799 A6,6 0 0 1 1099.5,196.4799 L1099.5,396.24 A6,6 0 0 1 1093.5,402.24 L546.5,402.24 A6,6 0 0 1 540.5,396.24 L540.5,163.24 A6,6 0 0 1 546.5,157.24 " fill="#292929" style="stroke: #000000; stroke-width: 1.5;"/><line style="stroke: #000000; stroke-width: 1.5;" x1="540.5" x2="810.5" y1="190.4799" y2="190.4799"/><text fill="#FFFFFF" font-family="sans-serif" font-size="20" font-weight="bold" lengthAdjust="spacingAndGlyphs" textLength="257" x="544.5" y="180.62">Gather public source data</text><!--MD5=[315fae63f5a382da4370fb21179d0efd]
cluster Choose prepared inputs--><path d="M174.5,435.24 L407.5,435.24 A9,9 0 0 1 413.5,441.24 L420.5,468.4799 L1658.5,468.4799 A6,6 0 0 1 1664.5,474.4799 L1664.5,565.24 A6,6 0 0 1 1658.5,571.24 L174.5,571.24 A6,6 0 0 1 168.5,565.24 L168.5,441.24 A6,6 0 0 1 174.5,435.24 " fill="#292929" style="stroke: #000000; stroke-width: 1.5;"/><line style="stroke: #000000; stroke-width: 1.5;" x1="168.5" x2="420.5" y1="468.4799" y2="468.4799"/><text fill="#FFFFFF" font-family="sans-serif" font-size="20" font-weight="bold" lengthAdjust="spacingAndGlyphs" textLength="239" x="172.5" y="458.62">Choose prepared inputs</text><!--MD5=[e9dede37b31fdda9664526f66258b036]
entity Browser--><rect fill="#4A3B24" height="183.4398" rx="6" ry="6" style="stroke: #000000; stroke-width: 1.5;" width="264" x="556.5" y="203.24"/><text fill="#FFFFFF" font-family="sans-serif" font-size="20" lengthAdjust="spacingAndGlyphs" textLength="244" x="566.5" y="234.62">Browser and manual tools</text><text fill="#FFFFFF" font-family="sans-serif" font-size="20" lengthAdjust="spacingAndGlyphs" textLength="147" x="615" y="261.8599">OpenStreetMap</text><text fill="#FFFFFF" font-family="sans-serif" font-size="20" lengthAdjust="spacingAndGlyphs" textLength="148" x="614.5" y="289.0999">Overpass Turbo</text><text fill="#FFFFFF" font-family="sans-serif" font-size="20" lengthAdjust="spacingAndGlyphs" textLength="49" x="664" y="316.3399">QGIS</text><text fill="#FFFFFF" font-family="sans-serif" font-size="20" lengthAdjust="spacingAndGlyphs" textLength="171" x="603" y="343.5799">USGS Downloader</text><text fill="#FFFFFF" font-family="sans-serif" font-size="20" lengthAdjust="spacingAndGlyphs" textLength="163" x="607" y="370.8198">OpenTopography</text><!--MD5=[4d17ebef18975ec1b63c6031f196eef0]
entity Api--><rect fill="#4A3B24" height="156.1999" rx="6" ry="6" style="stroke: #000000; stroke-width: 1.5;" width="227" x="856" y="216.74"/><text fill="#FFFFFF" font-family="sans-serif" font-size="20" lengthAdjust="spacingAndGlyphs" textLength="207" x="866" y="248.12">Optional scripted APIs</text><text fill="#FFFFFF" font-family="sans-serif" font-size="20" lengthAdjust="spacingAndGlyphs" textLength="193" x="873" y="275.3599">OSM known-way API</text><text fill="#FFFFFF" font-family="sans-serif" font-size="20" lengthAdjust="spacingAndGlyphs" textLength="125" x="907" y="302.5999">Overpass API</text><text fill="#FFFFFF" font-family="sans-serif" font-size="20" lengthAdjust="spacingAndGlyphs" textLength="207" x="866" y="329.8399">USGS TNM Access API</text><text fill="#FFFFFF" font-family="sans-serif" font-size="20" lengthAdjust="spacingAndGlyphs" textLength="200" x="869.5" y="357.0799">OpenTopography API</text><!--MD5=[27f959b626da82b850f333cc8c8c8459]
entity Boundary--><rect fill="#624A2E" height="74.4799" rx="6" ry="6" style="stroke: #000000; stroke-width: 1.5;" width="200" x="642.5" y="481.24"/><text fill="#FFFFFF" font-family="sans-serif" font-size="20" lengthAdjust="spacingAndGlyphs" textLength="180" x="652.5" y="512.62">Boundary GeoJSON</text><text fill="#FFFFFF" font-family="sans-serif" font-size="20" lengthAdjust="spacingAndGlyphs" textLength="172" x="656.5" y="539.8599">optional DEM crop</text><!--MD5=[70176d86fd74d37050ef68ca32be3a97]
entity HoleLines--><rect fill="#624A2E" height="74.4799" rx="6" ry="6" style="stroke: #000000; stroke-width: 1.5;" width="263" x="1096" y="481.24"/><text fill="#FFFFFF" font-family="sans-serif" font-size="20" lengthAdjust="spacingAndGlyphs" textLength="181" x="1137" y="512.62">Hole lines GeoJSON</text><text fill="#FFFFFF" font-family="sans-serif" font-size="20" lengthAdjust="spacingAndGlyphs" textLength="243" x="1106" y="539.8599">optional import and zones</text><!--MD5=[6fcf6ec34a0c184ae97c7b1a4ca0986a]
entity Bunkers--><rect fill="#624A2E" height="74.4799" rx="6" ry="6" style="stroke: #000000; stroke-width: 1.5;" width="205" x="184" y="481.24"/><text fill="#FFFFFF" font-family="sans-serif" font-size="20" lengthAdjust="spacingAndGlyphs" textLength="157" x="208" y="512.62">Bunker GeoJSON</text><text fill="#FFFFFF" font-family="sans-serif" font-size="20" lengthAdjust="spacingAndGlyphs" textLength="185" x="194" y="539.8599">optional sand zones</text><!--MD5=[11f1d280dee57cee99f0a3da6fb9846d]
entity Dem--><rect fill="#624A2E" height="74.4799" rx="6" ry="6" style="stroke: #000000; stroke-width: 1.5;" width="183" x="424" y="481.24"/><text fill="#FFFFFF" font-family="sans-serif" font-size="20" lengthAdjust="spacingAndGlyphs" textLength="125" x="453" y="512.62">GeoTIFF DEM</text><text fill="#FFFFFF" font-family="sans-serif" font-size="20" lengthAdjust="spacingAndGlyphs" textLength="163" x="434" y="539.8599">Heightmap mode</text><!--MD5=[a56836831be109486a1fecb2b0840e6e]
entity Lidar--><rect fill="#624A2E" height="74.4799" rx="6" ry="6" style="stroke: #000000; stroke-width: 1.5;" width="183" x="878" y="481.24"/><text fill="#FFFFFF" font-family="sans-serif" font-size="20" lengthAdjust="spacingAndGlyphs" textLength="144" x="897.5" y="512.62">LAS or LAZ lidar</text><text fill="#FFFFFF" font-family="sans-serif" font-size="20" lengthAdjust="spacingAndGlyphs" textLength="163" x="888" y="539.8599">Point cloud mode</text><!--MD5=[9a15392ad8ddafbb79e32d8589f6cfc4]
entity ExternalTerrain--><rect fill="#624A2E" height="74.4799" rx="6" ry="6" style="stroke: #000000; stroke-width: 1.5;" width="254" x="1394.5" y="481.24"/><text fill="#FFFFFF" font-family="sans-serif" font-size="20" lengthAdjust="spacingAndGlyphs" textLength="230" x="1406.5" y="512.62">Existing Terrain3D folder</text><text fill="#FFFFFF" font-family="sans-serif" font-size="20" lengthAdjust="spacingAndGlyphs" textLength="234" x="1404.5" y="539.8599">Manual or external mode</text><!--MD5=[7236b301fb59ef6b03f97581bbcc7acf]
entity Designer--><rect fill="#33415C" height="47.24" rx="6" ry="6" style="stroke: #000000; stroke-width: 1.5;" width="104" x="776.5" y="35.24"/><text fill="#FFFFFF" font-family="sans-serif" font-size="20" lengthAdjust="spacingAndGlyphs" textLength="84" x="786.5" y="66.62">Designer</text><!--MD5=[dfe4aebd8737f269792e6d2d35dc493d]
entity Dock--><rect fill="#30445A" height="74.4799" rx="6" ry="6" style="stroke: #000000; stroke-width: 1.5;" width="138" x="847.5" y="646.24"/><text fill="#FFFFFF" font-family="sans-serif" font-size="20" lengthAdjust="spacingAndGlyphs" textLength="110" x="861.5" y="677.62">Golf Course</text><text fill="#FFFFFF" font-family="sans-serif" font-size="20" lengthAdjust="spacingAndGlyphs" textLength="118" x="857.5" y="704.8599">Design Dock</text><!--MD5=[29ec679b950e49727d3b0cbadf44b3a4]
entity ProjectFile--><rect fill="#2F4A3E" height="74.4799" rx="6" ry="6" style="stroke: #000000; stroke-width: 1.5;" width="195" x="1109" y="836.24"/><text fill="#FFFFFF" font-family="sans-serif" font-size="20" lengthAdjust="spacingAndGlyphs" textLength="175" x="1119" y="867.62">course_design.tres</text><text fill="#FFFFFF" font-family="sans-serif" font-size="20" lengthAdjust="spacingAndGlyphs" textLength="153" x="1130" y="894.8599">editable settings</text><!--MD5=[261d0adb04cca552096bf548942aa691]
entity Gdal--><rect fill="#46314F" height="47.24" rx="6" ry="6" style="stroke: #000000; stroke-width: 1.5;" width="137" x="757" y="999.24"/><text fill="#FFFFFF" font-family="sans-serif" font-size="20" lengthAdjust="spacingAndGlyphs" textLength="117" x="767" y="1030.62">GDAL + OGR</text><!--MD5=[e39e2ed383f710cdfab4246a3ca6d617]
entity Pdal--><rect fill="#46314F" height="47.24" rx="6" ry="6" style="stroke: #000000; stroke-width: 1.5;" width="191" x="1339" y="849.74"/><text fill="#FFFFFF" font-family="sans-serif" font-size="20" lengthAdjust="spacingAndGlyphs" textLength="171" x="1349" y="881.12">PDAL rasterization</text><!--MD5=[8a66cd4b69276a0159279d42b4c5c7d3]
entity Staging--><rect fill="#294E4A" height="74.4799" rx="6" ry="6" style="stroke: #000000; stroke-width: 1.5;" width="211" x="720" y="1196.24"/><text fill="#FFFFFF" font-family="sans-serif" font-size="20" lengthAdjust="spacingAndGlyphs" textLength="131" x="760" y="1227.62">Staged terrain</text><text fill="#FFFFFF" font-family="sans-serif" font-size="20" lengthAdjust="spacingAndGlyphs" textLength="191" x="730" y="1254.8599">.golf_course_design/</text><!--MD5=[5cc2ea524b91f18e9d9d85ebaf8e7540]
entity TerrainFolder--><rect fill="#2F3F57" height="74.4799" rx="6" ry="6" style="stroke: #000000; stroke-width: 1.5;" width="158" x="618.5" y="1400.24"/><text fill="#FFFFFF" font-family="sans-serif" font-size="20" lengthAdjust="spacingAndGlyphs" textLength="138" x="628.5" y="1431.62">Terrain3D data</text><text fill="#FFFFFF" font-family="sans-serif" font-size="20" lengthAdjust="spacingAndGlyphs" textLength="73" x="661" y="1458.8599">Terrain/</text><!--MD5=[b1ff0076d4cbab6646eda112172971ae]
entity BaseScene--><rect fill="#34425C" height="74.4799" rx="6" ry="6" style="stroke: #000000; stroke-width: 1.5;" width="193" x="18" y="1400.24"/><text fill="#FFFFFF" font-family="sans-serif" font-size="20" lengthAdjust="spacingAndGlyphs" textLength="173" x="28" y="1431.62">Shared base scene</text><text fill="#FFFFFF" font-family="sans-serif" font-size="20" lengthAdjust="spacingAndGlyphs" textLength="160" x="34.5" y="1458.8599">course_base.tscn</text><!--MD5=[46bcd8461971fa75feae6c678471205b]
entity CoursePlay--><rect fill="#34425C" height="74.4799" rx="6" ry="6" style="stroke: #000000; stroke-width: 1.5;" width="181" x="6" y="646.24"/><text fill="#FFFFFF" font-family="sans-serif" font-size="20" lengthAdjust="spacingAndGlyphs" textLength="161" x="16" y="677.62">Shared gameplay</text><text fill="#FFFFFF" font-family="sans-serif" font-size="20" lengthAdjust="spacingAndGlyphs" textLength="139" x="27" y="704.8599">course_play.gd</text><!--MD5=[8754e1f985b3b75a3a8b3b0e0de39d22]
entity ScriptFile--><rect fill="#3C3C3C" height="74.4799" rx="6" ry="6" style="stroke: #000000; stroke-width: 1.5;" width="203" x="51" y="836.24"/><text fill="#FFFFFF" font-family="sans-serif" font-size="20" lengthAdjust="spacingAndGlyphs" textLength="92" x="106.5" y="867.62">course.gd</text><text fill="#FFFFFF" font-family="sans-serif" font-size="20" lengthAdjust="spacingAndGlyphs" textLength="183" x="61" y="894.8599">extends CoursePlay</text><!--MD5=[4a0e3c70fa404f6e779be273da724849]
entity JsonFile--><rect fill="#3C3C3C" height="74.4799" rx="6" ry="6" style="stroke: #000000; stroke-width: 1.5;" width="177" x="601" y="836.24"/><text fill="#FFFFFF" font-family="sans-serif" font-size="20" lengthAdjust="spacingAndGlyphs" textLength="107" x="636" y="867.62">course.json</text><text fill="#FFFFFF" font-family="sans-serif" font-size="20" lengthAdjust="spacingAndGlyphs" textLength="157" x="611" y="894.8599">course metadata</text><!--MD5=[32781e2e2b1918887e55ffaff3de4545]
entity SceneFile--><rect fill="#3C3C3C" height="74.4799" rx="6" ry="6" style="stroke: #000000; stroke-width: 1.5;" width="196" x="419.5" y="1570.24"/><text fill="#FFFFFF" font-family="sans-serif" font-size="20" lengthAdjust="spacingAndGlyphs" textLength="107" x="464" y="1601.62">course.tscn</text><text fill="#FFFFFF" font-family="sans-serif" font-size="20" lengthAdjust="spacingAndGlyphs" textLength="176" x="429.5" y="1628.8599">one playable scene</text><!--MD5=[ebc08f176bc2594967537e328d588e62]
entity GodotView--><rect fill="#274A5A" height="74.4799" rx="6" ry="6" style="stroke: #000000; stroke-width: 1.5;" width="202" x="416.5" y="1733.24"/><text fill="#FFFFFF" font-family="sans-serif" font-size="20" lengthAdjust="spacingAndGlyphs" textLength="136" x="449.5" y="1764.62">Godot 3D view</text><text fill="#FFFFFF" font-family="sans-serif" font-size="20" lengthAdjust="spacingAndGlyphs" textLength="182" x="426.5" y="1791.8599">and course selector</text><path d="M1684,493.24 L1684,542.9961 A6,6 0 0 0 1690,548.9961 L2019,548.9961 A6,6 0 0 0 2025,542.9961 L2025,497.24 L2015,487.24 L1690,487.24 A6,6 0 0 0 1684,493.24 " fill="#2A2A2A" style="stroke: #BBBBBB; stroke-width: 1.0;"/><path d="M2015,487.24 L2015,494.24 A3,3 0 0 0 2018,497.24 L2025,497.24 L2015,487.24 " fill="#2A2A2A" style="stroke: #BBBBBB; stroke-width: 1.0;"/><text fill="#FFFFFF" font-family="sans-serif" font-size="19" lengthAdjust="spacingAndGlyphs" textLength="320" x="1690" y="512.551">Use a DEM first when it is available.</text><text fill="#FFFFFF" font-family="sans-serif" font-size="19" lengthAdjust="spacingAndGlyphs" textLength="320" x="1690" y="538.4291">Lidar is optional and usually larger.</text><path d="M2060,493.24 L2060,542.9961 A6,6 0 0 0 2066,548.9961 L2451,548.9961 A6,6 0 0 0 2457,542.9961 L2457,497.24 L2447,487.24 L2066,487.24 A6,6 0 0 0 2060,493.24 " fill="#2A2A2A" style="stroke: #BBBBBB; stroke-width: 1.0;"/><path d="M2447,487.24 L2447,494.24 A3,3 0 0 0 2450,497.24 L2457,497.24 L2447,487.24 " fill="#2A2A2A" style="stroke: #BBBBBB; stroke-width: 1.0;"/><text fill="#FFFFFF" font-family="sans-serif" font-size="19" lengthAdjust="spacingAndGlyphs" textLength="319" x="2066" y="512.551">Holes can also be entered by hand.</text><text fill="#FFFFFF" font-family="sans-serif" font-size="19" lengthAdjust="spacingAndGlyphs" textLength="376" x="2066" y="538.4291">Generated zones need numeric hole refs.</text><path d="M966,1195.24 L966,1229.24 L931.15,1233.24 L966,1237.24 L966,1270.8742 A6,6 0 0 0 972,1276.8742 L1377,1276.8742 A6,6 0 0 0 1383,1270.8742 L1383,1199.24 L1373,1189.24 L972,1189.24 A6,6 0 0 0 966,1195.24 " fill="#2A2A2A" style="stroke: #BBBBBB; stroke-width: 1.0;"/><path d="M1373,1189.24 L1373,1196.24 A3,3 0 0 0 1376,1199.24 L1383,1199.24 L1373,1189.24 " fill="#2A2A2A" style="stroke: #BBBBBB; stroke-width: 1.0;"/><text fill="#FFFFFF" font-family="sans-serif" font-size="19" lengthAdjust="spacingAndGlyphs" textLength="396" x="972" y="1214.551">Heightmap and lidar builds are staged first.</text><text fill="#FFFFFF" font-family="sans-serif" font-size="19" lengthAdjust="spacingAndGlyphs" textLength="365" x="972" y="1240.4291">An existing Terrain/ folder is moved to a</text><text fill="#FFFFFF" font-family="sans-serif" font-size="19" lengthAdjust="spacingAndGlyphs" textLength="383" x="972" y="1266.3072">timestamped backup before replacement.</text><path d="M811.5,1399.24 L811.5,1433.24 L776.74,1437.24 L811.5,1441.24 L811.5,1474.8742 A6,6 0 0 0 817.5,1480.8742 L1221.5,1480.8742 A6,6 0 0 0 1227.5,1474.8742 L1227.5,1403.24 L1217.5,1393.24 L817.5,1393.24 A6,6 0 0 0 811.5,1399.24 " fill="#2A2A2A" style="stroke: #BBBBBB; stroke-width: 1.0;"/><path d="M1217.5,1393.24 L1217.5,1400.24 A3,3 0 0 0 1220.5,1403.24 L1227.5,1403.24 L1217.5,1393.24 " fill="#2A2A2A" style="stroke: #BBBBBB; stroke-width: 1.0;"/><text fill="#FFFFFF" font-family="sans-serif" font-size="19" lengthAdjust="spacingAndGlyphs" textLength="395" x="817.5" y="1418.551">Generated class maps paint rough, fairway,</text><text fill="#FFFFFF" font-family="sans-serif" font-size="19" lengthAdjust="spacingAndGlyphs" textLength="352" x="817.5" y="1444.4291">green, and optional sand texture slots.</text><text fill="#FFFFFF" font-family="sans-serif" font-size="19" lengthAdjust="spacingAndGlyphs" textLength="321" x="817.5" y="1470.3072">Fine edits still happen in Terrain3D.</text><path d="M650.5,1582.24 L650.5,1603.24 L615.57,1607.24 L650.5,1611.24 L650.5,1631.9961 A6,6 0 0 0 656.5,1637.9961 L1052.5,1637.9961 A6,6 0 0 0 1058.5,1631.9961 L1058.5,1586.24 L1048.5,1576.24 L656.5,1576.24 A6,6 0 0 0 650.5,1582.24 " fill="#2A2A2A" style="stroke: #BBBBBB; stroke-width: 1.0;"/><path d="M1048.5,1576.24 L1048.5,1583.24 A3,3 0 0 0 1051.5,1586.24 L1058.5,1586.24 L1048.5,1576.24 " fill="#2A2A2A" style="stroke: #BBBBBB; stroke-width: 1.0;"/><text fill="#FFFFFF" font-family="sans-serif" font-size="19" lengthAdjust="spacingAndGlyphs" textLength="387" x="656.5" y="1601.551">The export is one scene for the full course,</text><text fill="#FFFFFF" font-family="sans-serif" font-size="19" lengthAdjust="spacingAndGlyphs" textLength="214" x="656.5" y="1627.4291">not one scene per hole.</text><!--MD5=[1770d08e2fbc7e417de1a3b9b4f4b0de]
link Designer to Browser--><path d="M776.36,76.36 C758.42,84.51 739.78,96.13 727.5,112.24 C708.84,136.71 698.67,168.17 693.26,198.01 " fill="none" id="Designer-&gt;Browser" style="stroke: #EAEAEA; stroke-width: 1.0;"/><polygon fill="#EAEAEA" points="692.37,203.17,697.8529,194.9884,693.2267,198.2439,689.9712,193.6177,692.37,203.17" style="stroke: #EAEAEA; stroke-width: 1.0;"/><text fill="#FFFFFF" font-family="sans-serif" font-size="20" lengthAdjust="spacingAndGlyphs" textLength="183" x="728.5" y="134.62">point-and-click path</text><!--MD5=[b1af5815096dc3946d15230215548a91]
link Designer to Api--><path d="M880.53,82.17 C893.83,90.01 907.03,100 916.5,112.24 C938.52,140.7 951.4,178.06 958.93,211.48 " fill="none" id="Designer-&gt;Api" style="stroke: #EAEAEA; stroke-width: 1.0;"/><polygon fill="#EAEAEA" points="960,216.38,962.0062,206.7376,958.9426,211.4931,954.1871,208.4295,960,216.38" style="stroke: #EAEAEA; stroke-width: 1.0;"/><text fill="#FFFFFF" font-family="sans-serif" font-size="20" lengthAdjust="spacingAndGlyphs" textLength="226" x="933.5" y="134.62">repeatable scripted path</text><!--MD5=[5666d3b612fbcc7fa7e231f1aa1df55a]
link Browser to Boundary--><path d="M710.62,386.47 C718.21,417.61 726.33,450.93 732.48,476.14 " fill="none" id="Browser-&gt;Boundary" style="stroke: #EAEAEA; stroke-width: 1.0;"/><polygon fill="#EAEAEA" points="733.68,481.08,735.4315,471.3881,732.4942,476.2226,727.6597,473.2853,733.68,481.08" style="stroke: #EAEAEA; stroke-width: 1.0;"/><!--MD5=[a03f8c465e0ba3224358ad786449f983]
link Browser to HoleLines--><path d="M791.66,386.24 C806.61,395.76 822.41,404.16 838.5,410.24 C888.51,429.14 1027.53,411.08 1078.5,427.24 C1113.64,438.38 1149.12,459.34 1176.64,478.23 " fill="none" id="Browser-&gt;HoleLines" style="stroke: #EAEAEA; stroke-width: 1.0;"/><polygon fill="#EAEAEA" points="1180.98,481.24,1175.8495,472.8329,1176.8665,478.3976,1171.3018,479.4146,1180.98,481.24" style="stroke: #EAEAEA; stroke-width: 1.0;"/><!--MD5=[67ea4f1e87f58a64f45cb6e00a9471e6]
link Browser to Bunkers--><path d="M556.44,350.5 C508.13,372.29 453.76,398.91 406.5,427.24 C381.48,442.24 355.37,461.34 333.93,478.09 " fill="none" id="Browser-&gt;Bunkers" style="stroke: #EAEAEA; stroke-width: 1.0;"/><polygon fill="#EAEAEA" points="329.98,481.19,339.5285,478.7764,333.9121,478.1015,334.587,472.485,329.98,481.19" style="stroke: #EAEAEA; stroke-width: 1.0;"/><!--MD5=[e94f8251050ff22ed70ed18451fd3b10]
link Browser to Dem--><path d="M617.64,386.47 C593.01,418 566.64,451.76 546.86,477.09 " fill="none" id="Browser-&gt;Dem" style="stroke: #EAEAEA; stroke-width: 1.0;"/><polygon fill="#EAEAEA" points="543.75,481.08,552.4364,476.4381,546.8227,477.1355,546.1252,471.5218,543.75,481.08" style="stroke: #EAEAEA; stroke-width: 1.0;"/><!--MD5=[4edab3de7048cf1695ce5efd546deea5]
link Browser to Lidar--><path d="M807.04,386.24 C834.7,407.39 857.17,424.59 860.5,427.24 C880.95,443.49 903.24,461.79 922.31,477.62 " fill="none" id="Browser-&gt;Lidar" style="stroke: #EAEAEA; stroke-width: 1.0;"/><polygon fill="#EAEAEA" points="926.57,481.17,922.2135,472.337,922.7277,477.9705,917.0943,478.4847,926.57,481.17" style="stroke: #EAEAEA; stroke-width: 1.0;"/><!--MD5=[9964f16591a40ca22bf292ea37511ffe]
link Api to Boundary--><path d="M890.43,372.9 C854.42,408.03 813.32,448.14 783.59,477.15 " fill="none" id="Api-&gt;Boundary" style="stroke: #EAEAEA; stroke-width: 1.0;"/><polygon fill="#EAEAEA" points="779.66,480.98,788.8876,477.5375,783.2311,477.4803,783.2882,471.8238,779.66,480.98" style="stroke: #EAEAEA; stroke-width: 1.0;"/><!--MD5=[f87a52b95ca67de938007bcaaf742c94]
link Api to HoleLines--><path d="M1069.89,372.76 C1088.31,387.55 1107.18,403.14 1124.5,418.24 C1146.05,437.04 1169.09,458.99 1187.9,477.44 " fill="none" id="Api-&gt;HoleLines" style="stroke: #EAEAEA; stroke-width: 1.0;"/><polygon fill="#EAEAEA" points="1191.6,481.08,1187.9718,471.9238,1188.0289,477.5803,1182.3724,477.6375,1191.6,481.08" style="stroke: #EAEAEA; stroke-width: 1.0;"/><!--MD5=[d84cf67bb93a5f5bc13208e9b210efe1]
link Api to Dem--><path d="M897.3,373.02 C879.53,387.79 859.51,401.38 838.5,410.24 C750.99,447.13 713.6,391.78 625.5,427.24 C598.03,438.3 572.15,458.76 552.39,477.39 " fill="none" id="Api-&gt;Dem" style="stroke: #EAEAEA; stroke-width: 1.0;"/><polygon fill="#EAEAEA" points="548.53,481.09,557.7987,477.7595,552.1432,477.6339,552.2689,471.9784,548.53,481.09" style="stroke: #EAEAEA; stroke-width: 1.0;"/><!--MD5=[915e3c65306d298a4cdaf45e9f93783a]
link Api to Lidar--><path d="M969.5,372.9 C969.5,407.45 969.5,446.83 969.5,475.72 " fill="none" id="Api-&gt;Lidar" style="stroke: #EAEAEA; stroke-width: 1.0;"/><polygon fill="#EAEAEA" points="969.5,480.98,973.5,471.98,969.5,475.98,965.5,471.98,969.5,480.98" style="stroke: #EAEAEA; stroke-width: 1.0;"/><!--MD5=[f461a5c7ca672d40fce7f412c5747e74]
link Boundary to Dock--><path d="M747.28,555.49 C751.54,575.41 759.53,599.42 774.5,616.24 C792.54,636.52 818.11,651.02 842.59,661.16 " fill="none" id="Boundary-&gt;Dock" style="stroke: #EAEAEA; stroke-width: 1.0;"/><polygon fill="#EAEAEA" points="847.47,663.13,840.6256,656.048,842.8346,661.2558,837.6268,663.4648,847.47,663.13" style="stroke: #EAEAEA; stroke-width: 1.0;"/><text fill="#FFFFFF" font-family="sans-serif" font-size="20" lengthAdjust="spacingAndGlyphs" textLength="123" x="775.5" y="609.62">optional crop</text><!--MD5=[cf1b480e7a223cf22be57a7bc659a415]
link HoleLines to Dock--><path d="M1158.48,555.41 C1108.45,581.64 1040.91,617.03 989.9,643.77 " fill="none" id="HoleLines-&gt;Dock" style="stroke: #EAEAEA; stroke-width: 1.0;"/><polygon fill="#EAEAEA" points="985.33,646.17,995.1584,645.5349,989.7586,643.8489,991.4446,638.4491,985.33,646.17" style="stroke: #EAEAEA; stroke-width: 1.0;"/><text fill="#FFFFFF" font-family="sans-serif" font-size="20" lengthAdjust="spacingAndGlyphs" textLength="265" x="1091.5" y="609.62">optional import and painting</text><!--MD5=[163753cb6d538e3538666ea5b788e80f]
link Bunkers to Dock--><path d="M328.31,555.27 C355.37,576.55 392.37,602.04 429.5,616.24 C568.46,669.4 744.08,680.76 841.93,682.6 " fill="none" id="Bunkers-&gt;Dock" style="stroke: #EAEAEA; stroke-width: 1.0;"/><polygon fill="#EAEAEA" points="847.11,682.69,838.1801,678.5359,842.1107,682.604,838.0426,686.5347,847.11,682.69" style="stroke: #EAEAEA; stroke-width: 1.0;"/><text fill="#FFFFFF" font-family="sans-serif" font-size="20" lengthAdjust="spacingAndGlyphs" textLength="157" x="430.5" y="609.62">optional painting</text><!--MD5=[6130189d0ea1e7b19b3f9082dbdf0e4e]
link Dem to Dock--><path d="M553.85,555.34 C577.69,575.97 609.93,600.74 642.5,616.24 C706.4,646.66 785.56,663.77 842.33,672.91 " fill="none" id="Dem-&gt;Dock" style="stroke: #EAEAEA; stroke-width: 1.0;"/><polygon fill="#EAEAEA" points="847.41,673.71,839.1496,668.3467,842.472,672.925,837.8936,676.2475,847.41,673.71" style="stroke: #EAEAEA; stroke-width: 1.0;"/><text fill="#FFFFFF" font-family="sans-serif" font-size="20" lengthAdjust="spacingAndGlyphs" textLength="104" x="643.5" y="609.62">Heightmap</text><!--MD5=[a2ece71e56440f387d19b452ee4fd1d4]
link Lidar to Dock--><path d="M932.06,555.5 C924.47,565.04 917.58,575.87 913.5,587.24 C907.44,604.13 907.07,623.81 908.65,640.87 " fill="none" id="Lidar-&gt;Dock" style="stroke: #EAEAEA; stroke-width: 1.0;"/><polygon fill="#EAEAEA" points="909.2,646.07,912.2527,636.7062,908.6855,641.0965,904.2951,637.5293,909.2,646.07" style="stroke: #EAEAEA; stroke-width: 1.0;"/><text fill="#FFFFFF" font-family="sans-serif" font-size="20" lengthAdjust="spacingAndGlyphs" textLength="104" x="914.5" y="609.62">Point cloud</text><!--MD5=[f31ec1eb076a1d6c19898f7971088364]
link ExternalTerrain to Dock--><path d="M1474.98,555.28 C1445.27,576.42 1405.03,601.76 1365.5,616.24 C1239.16,662.52 1081.58,676.42 990.65,680.55 " fill="none" id="ExternalTerrain-&gt;Dock" style="stroke: #EAEAEA; stroke-width: 1.0;"/><polygon fill="#EAEAEA" points="985.57,680.78,994.733,684.3909,990.5654,680.5659,994.3905,676.3983,985.57,680.78" style="stroke: #EAEAEA; stroke-width: 1.0;"/><text fill="#FFFFFF" font-family="sans-serif" font-size="20" lengthAdjust="spacingAndGlyphs" textLength="221" x="1424.5" y="609.62">Manual or external data</text><!--MD5=[79c029412cd619c0a8d70d49eb906973]
link Dock to ProjectFile--><path d="M985.75,702.08 C1016.52,712.47 1051.75,728.02 1078.5,750.24 C1101.26,769.15 1094.12,784.79 1114.5,806.24 C1123.47,815.67 1133.95,824.64 1144.56,832.76 " fill="none" id="Dock-&gt;ProjectFile" style="stroke: #EAEAEA; stroke-width: 1.0;"/><polygon fill="#EAEAEA" points="1148.79,835.94,1144.0048,827.3317,1144.7952,832.9331,1139.1938,833.7235,1148.79,835.94" style="stroke: #EAEAEA; stroke-width: 1.0;"/><text fill="#FFFFFF" font-family="sans-serif" font-size="20" lengthAdjust="spacingAndGlyphs" textLength="43" x="1115.5" y="786.12">Save</text><!--MD5=[a0d49a178ee09be85901d6decda23588]
link ProjectFile to Dock--><path d="M1108.72,843.66 C1072.86,831.81 1037.59,818.08 1023.5,806.24 C1001.55,787.8 1009.62,772.45 991.5,750.24 C984.02,741.07 975.2,732.09 966.28,723.87 " fill="none" id="ProjectFile-&gt;Dock" style="stroke: #EAEAEA; stroke-width: 1.0;"/><polygon fill="#EAEAEA" points="962.45,720.39,966.4084,729.4084,966.1458,723.7576,971.7966,723.495,962.45,720.39" style="stroke: #EAEAEA; stroke-width: 1.0;"/><text fill="#FFFFFF" font-family="sans-serif" font-size="20" lengthAdjust="spacingAndGlyphs" textLength="45" x="1024.5" y="786.12">Load</text><!--MD5=[9fbe2c786f87b1526869f967ca6999bd]
link Dock to Pdal--><path d="M985.67,689.24 C1038.67,696.06 1111.33,712.18 1163.5,750.24 C1187.4,767.68 1175.42,789.04 1199.5,806.24 C1244.94,838.7 1267.76,821.09 1321.5,836.24 C1334.47,839.9 1348.2,844.04 1361.45,848.18 " fill="none" id="Dock-&gt;Pdal" style="stroke: #EAEAEA; stroke-width: 1.0;"/><polygon fill="#EAEAEA" points="1366.3,849.7,1358.9139,843.185,1361.5301,848.2005,1356.5147,850.8167,1366.3,849.7" style="stroke: #EAEAEA; stroke-width: 1.0;"/><text fill="#FFFFFF" font-family="sans-serif" font-size="20" lengthAdjust="spacingAndGlyphs" textLength="156" x="1200.5" y="786.12">point-cloud build</text><!--MD5=[990fe4a8272bef768d67bfd8c9d9c7f6]
link Lidar to Pdal--><path d="M1000.44,555.62 C1018.54,575.34 1042.67,599.11 1067.5,616.24 C1185.7,697.79 1254.46,654.52 1361.5,750.24 C1390.95,776.57 1412.11,817.66 1423.83,844.76 " fill="none" id="Lidar-&gt;Pdal" style="stroke: #EAEAEA; stroke-width: 1.0;"/><polygon fill="#EAEAEA" points="1425.91,849.66,1426.0672,839.8124,1423.9525,845.0591,1418.7058,842.9444,1425.91,849.66" style="stroke: #EAEAEA; stroke-width: 1.0;"/><!--MD5=[d0c95be516de2c8fff70b84342998210]
link Pdal to Gdal--><path d="M1366.97,896.81 C1352.06,901.5 1336.3,906.23 1321.5,910.24 C1172.96,950.52 996.64,987.66 899.31,1007.25 " fill="none" id="Pdal-&gt;Gdal" style="stroke: #EAEAEA; stroke-width: 1.0;"/><polygon fill="#EAEAEA" points="894.16,1008.28,903.7721,1010.4265,899.0618,1007.2939,902.1944,1002.5836,894.16,1008.28" style="stroke: #EAEAEA; stroke-width: 1.0;"/><text fill="#FFFFFF" font-family="sans-serif" font-size="20" lengthAdjust="spacingAndGlyphs" textLength="161" x="1200.5" y="962.62">raster heightmap</text><!--MD5=[3e8ad887dff394c93fdd6eaeb4301425]
link Dock to Gdal--><path d="M906.72,720.48 C898.42,751.27 886.17,796.66 875.5,836.24 C860.4,892.26 842.73,957.79 832.96,994.05 " fill="none" id="Dock-&gt;Gdal" style="stroke: #EAEAEA; stroke-width: 1.0;"/><polygon fill="#EAEAEA" points="831.58,999.18,837.7822,991.5293,832.8799,994.3519,830.0573,989.4495,831.58,999.18" style="stroke: #EAEAEA; stroke-width: 1.0;"/><text fill="#FFFFFF" font-family="sans-serif" font-size="20" lengthAdjust="spacingAndGlyphs" textLength="152" x="876.5" y="881.12">heightmap build</text><!--MD5=[a5dee1c8a7cd72b8bdad3c339414b90c]
link Dem to Gdal--><path d="M507.63,555.3 C493.81,627.88 472.41,794.54 537.5,910.24 C579.47,984.85 681.12,1009.77 751.68,1017.95 " fill="none" id="Dem-&gt;Gdal" style="stroke: #EAEAEA; stroke-width: 1.0;"/><polygon fill="#EAEAEA" points="756.7,1018.51,748.2015,1013.5325,751.7311,1017.9531,747.3105,1021.4827,756.7,1018.51" style="stroke: #EAEAEA; stroke-width: 1.0;"/><!--MD5=[4fd53fe1f59fbedfa09c74f5efc604bc]
link Boundary to Gdal--><path d="M678.88,555.27 C661.62,564.02 642.67,572.72 624.5,579.24 C609.07,584.78 600.48,576.05 588.5,587.24 C515.7,655.27 521.09,708.5 540.5,806.24 C550.24,855.3 548.84,874.18 583.5,910.24 C629.15,957.74 698.89,986.89 751.8,1003.42 " fill="none" id="Boundary-&gt;Gdal" style="stroke: #EAEAEA; stroke-width: 1.0;"/><polygon fill="#EAEAEA" points="756.87,1004.98,749.443,998.5116,752.0908,1003.5105,747.0919,1006.1584,756.87,1004.98" style="stroke: #EAEAEA; stroke-width: 1.0;"/><text fill="#FFFFFF" font-family="sans-serif" font-size="20" lengthAdjust="spacingAndGlyphs" textLength="102" x="541.5" y="786.12">crop raster</text><!--MD5=[4c4fcb93e55ce64079d93b79e96ff5b6]
link HoleLines to Gdal--><path d="M1302.98,555.38 C1326.34,564.93 1352.52,574.02 1377.5,579.24 C1391.48,582.16 1624.56,576.98 1634.5,587.24 C1643.47,596.49 1636.95,603.59 1634.5,616.24 C1622.28,679.28 1599.06,688.77 1580.5,750.24 C1559.51,819.75 1595.72,855.95 1547.5,910.24 C1462.88,1005.52 1066.26,1019.92 899.58,1021.71 " fill="none" id="HoleLines-&gt;Gdal" style="stroke: #EAEAEA; stroke-width: 1.0;"/><polygon fill="#EAEAEA" points="894.23,1021.76,903.2751,1025.6569,899.2297,1021.7028,903.1837,1017.6574,894.23,1021.76" style="stroke: #EAEAEA; stroke-width: 1.0;"/><text fill="#FFFFFF" font-family="sans-serif" font-size="20" lengthAdjust="spacingAndGlyphs" textLength="132" x="1581.5" y="772.62">fairways, tees,</text><text fill="#FFFFFF" font-family="sans-serif" font-size="20" lengthAdjust="spacingAndGlyphs" textLength="104" x="1595.5" y="799.8599">and greens</text><!--MD5=[0be4fcbfeb7be84f45f5d6f584b106e6]
link Bunkers to Gdal--><path d="M292.35,555.25 C302.85,612.17 328.78,724.8 380.5,806.24 C437.14,895.42 459.47,921.1 553.5,969.24 C615.73,1001.1 694.99,1013.7 751.87,1018.65 " fill="none" id="Bunkers-&gt;Gdal" style="stroke: #EAEAEA; stroke-width: 1.0;"/><polygon fill="#EAEAEA" points="756.96,1019.08,748.3221,1014.3484,751.9772,1018.6659,747.6597,1022.321,756.96,1019.08" style="stroke: #EAEAEA; stroke-width: 1.0;"/><text fill="#FFFFFF" font-family="sans-serif" font-size="20" lengthAdjust="spacingAndGlyphs" textLength="104" x="381.5" y="786.12">sand zones</text><!--MD5=[bc6196797cf672946a3de304398c9ae1]
link Gdal to Staging--><path d="M825.5,1046.45 C825.5,1081.03 825.5,1147.45 825.5,1190.79 " fill="none" id="Gdal-&gt;Staging" style="stroke: #EAEAEA; stroke-width: 1.0;"/><polygon fill="#EAEAEA" points="825.5,1195.95,829.5,1186.95,825.5,1190.95,821.5,1186.95,825.5,1195.95" style="stroke: #EAEAEA; stroke-width: 1.0;"/><text fill="#FFFFFF" font-family="sans-serif" font-size="20" lengthAdjust="spacingAndGlyphs" textLength="77" x="841" y="1098.62">fill gaps,</text><text fill="#FFFFFF" font-family="sans-serif" font-size="20" lengthAdjust="spacingAndGlyphs" textLength="92" x="833.5" y="1125.8599">write EXR,</text><text fill="#FFFFFF" font-family="sans-serif" font-size="20" lengthAdjust="spacingAndGlyphs" textLength="106" x="826.5" y="1153.0999">paint zones</text><!--MD5=[685eaed544d0749b3a3df9b709895643]
link ExternalTerrain to Staging--><path d="M1622.06,555.29 C1637.05,563.99 1651.22,574.54 1662.5,587.24 C1729.21,662.36 1762.36,715.85 1718.5,806.24 C1685.9,873.44 1647.45,867.07 1586.5,910.24 C1546.56,938.53 1537.14,947.06 1493.5,969.24 C1390.97,1021.35 1089.1,1135.01 928.59,1194.4 " fill="none" id="ExternalTerrain-&gt;Staging" style="stroke: #EAEAEA; stroke-width: 1.0;"/><polygon fill="#EAEAEA" points="923.88,1196.14,933.7099,1196.7515,928.5663,1194.3969,930.9209,1189.2534,923.88,1196.14" style="stroke: #EAEAEA; stroke-width: 1.0;"/><text fill="#FFFFFF" font-family="sans-serif" font-size="20" lengthAdjust="spacingAndGlyphs" textLength="104" x="1700.5" y="881.12">copy folder</text><!--MD5=[d7be847a714bcce2e2b437a7ec63c4ea]
link Staging to TerrainFolder--><path d="M802.62,1270.35 C780.3,1305.58 746.41,1359.06 723.18,1395.71 " fill="none" id="Staging-&gt;TerrainFolder" style="stroke: #EAEAEA; stroke-width: 1.0;"/><polygon fill="#EAEAEA" points="720.4,1400.1,728.5886,1394.6276,723.0705,1395.8729,721.8252,1390.3548,720.4,1400.1" style="stroke: #EAEAEA; stroke-width: 1.0;"/><text fill="#FFFFFF" font-family="sans-serif" font-size="20" lengthAdjust="spacingAndGlyphs" textLength="112" x="782.5" y="1329.62">replace only</text><text fill="#FFFFFF" font-family="sans-serif" font-size="20" lengthAdjust="spacingAndGlyphs" textLength="122" x="777.5" y="1356.8599">after success</text><!--MD5=[baa842fb9e55f0ca2f9cffbac54c61b5]
link Dock to ScriptFile--><path d="M847.31,690.04 C797.58,697.28 731.31,713.58 684.5,750.24 C661.93,767.92 676.3,790.26 652.5,806.24 C590.13,848.13 386.67,863.52 259.32,869.11 " fill="none" id="Dock-&gt;ScriptFile" style="stroke: #EAEAEA; stroke-width: 1.0;"/><polygon fill="#EAEAEA" points="254.07,869.34,263.233,872.9509,259.0654,869.1259,262.8905,864.9583,254.07,869.34" style="stroke: #EAEAEA; stroke-width: 1.0;"/><text fill="#FFFFFF" font-family="sans-serif" font-size="20" lengthAdjust="spacingAndGlyphs" textLength="61" x="685.5" y="786.12">Export</text><!--MD5=[eed0b158dfbd72393eb3aa5cd5c0eb25]
link Dock to JsonFile--><path d="M847.19,712.83 C827.83,722.85 807.68,735.39 791.5,750.24 C769.7,770.25 774.07,783.2 755.5,806.24 C748.42,815.02 740.31,823.91 732.26,832.19 " fill="none" id="Dock-&gt;JsonFile" style="stroke: #EAEAEA; stroke-width: 1.0;"/><polygon fill="#EAEAEA" points="728.31,836.21,737.4735,832.6001,731.8168,832.6459,731.771,826.9893,728.31,836.21" style="stroke: #EAEAEA; stroke-width: 1.0;"/><text fill="#FFFFFF" font-family="sans-serif" font-size="20" lengthAdjust="spacingAndGlyphs" textLength="61" x="792.5" y="786.12">Export</text><!--MD5=[b88ae36e7f5c4b9fa58ba78fe8881d3a]
link Dock to SceneFile--><path d="M935.23,720.43 C949.47,746 970.63,780.2 994.5,806.24 C1009.28,822.36 1017.97,820.85 1033.5,836.24 C1063.18,865.65 1055.44,889.13 1091.5,910.24 C1166.79,954.33 1215.82,887.73 1285.5,940.24 C1411.89,1035.48 1451.01,1127.26 1400.5,1277.24 C1364.15,1385.15 1343.59,1423.41 1245.5,1481.24 C1008.73,1620.84 901.58,1509.54 633.5,1570.24 C629.29,1571.19 625.01,1572.23 620.69,1573.32 " fill="none" id="Dock-&gt;SceneFile" style="stroke: #EAEAEA; stroke-width: 1.0;"/><polygon fill="#EAEAEA" points="615.62,1574.62,625.3318,1576.2572,620.4631,1573.3771,623.3432,1568.5083,615.62,1574.62" style="stroke: #EAEAEA; stroke-width: 1.0;"/><text fill="#FFFFFF" font-family="sans-serif" font-size="20" lengthAdjust="spacingAndGlyphs" textLength="61" x="1422.5" y="1125.62">Export</text><!--MD5=[6706ff17295b44c5c41963fd8c0f563b]
link TerrainFolder to SceneFile--><path d="M658.89,1474.28 C629.92,1501.32 590.27,1538.32 560.33,1566.26 " fill="none" id="TerrainFolder-&gt;SceneFile" style="stroke: #EAEAEA; stroke-width: 1.0;"/><polygon fill="#EAEAEA" points="556.36,1569.97,565.6683,1566.752,560.0148,1566.5579,560.209,1560.9044,556.36,1569.97" style="stroke: #EAEAEA; stroke-width: 1.0;"/><text fill="#FFFFFF" font-family="sans-serif" font-size="20" lengthAdjust="spacingAndGlyphs" textLength="128" x="618.5" y="1533.62">referenced by</text><!--MD5=[ee054adffc54c593776b8016115ecf42]
link BaseScene to SceneFile--><path d="M102.41,1474.31 C97.62,1495.86 96.35,1522.43 111.5,1540.24 C149.64,1585.08 307.07,1599.54 414.31,1604.15 " fill="none" id="BaseScene-&gt;SceneFile" style="stroke: #EAEAEA; stroke-width: 1.0;"/><polygon fill="#EAEAEA" points="419.38,1604.36,410.5476,1600.0024,414.384,1604.1596,410.2269,1607.996,419.38,1604.36" style="stroke: #EAEAEA; stroke-width: 1.0;"/><text fill="#FFFFFF" font-family="sans-serif" font-size="20" lengthAdjust="spacingAndGlyphs" textLength="127" x="112.5" y="1533.62">inherited root</text><!--MD5=[90115109a5257897cbe99aae88371124]
link CoursePlay to ScriptFile--><path d="M88.57,720.43 C84.77,745.37 83.03,778.83 93.5,806.24 C96.97,815.33 102.33,823.95 108.43,831.79 " fill="none" id="CoursePlay-&gt;ScriptFile" style="stroke: #EAEAEA; stroke-width: 1.0; stroke-dasharray: 7.0,7.0;"/><polygon fill="#EAEAEA" points="111.89,836.06,109.3402,826.5469,108.7457,832.1724,103.1201,831.5779,111.89,836.06" style="stroke: #EAEAEA; stroke-width: 1.0;"/><text fill="#FFFFFF" font-family="sans-serif" font-size="20" lengthAdjust="spacingAndGlyphs" textLength="169" x="94.5" y="786.12">inherited behavior</text><!--MD5=[0b2edcf13978a8cb0ef4f16780f358ce]
link ScriptFile to SceneFile--><path d="M202.17,910.32 C232.89,937.13 266.5,976.75 266.5,1021.74 C266.5,1021.74 266.5,1021.74 266.5,1438.24 C266.5,1513.39 345.16,1557.05 414.41,1580.92 " fill="none" id="ScriptFile-&gt;SceneFile" style="stroke: #EAEAEA; stroke-width: 1.0;"/><polygon fill="#EAEAEA" points="419.38,1582.61,412.155,1575.9168,414.6481,1580.9946,409.5703,1583.4877,419.38,1582.61" style="stroke: #EAEAEA; stroke-width: 1.0;"/><text fill="#FFFFFF" font-family="sans-serif" font-size="20" lengthAdjust="spacingAndGlyphs" textLength="120" x="267.5" y="1241.12">course script</text><!--MD5=[772ecf0ae3f9b5a6750082170662f791]
link JsonFile to SceneFile--><path d="M603.25,910.37 C560.33,934.66 517.5,971.49 517.5,1021.74 C517.5,1021.74 517.5,1021.74 517.5,1438.24 C517.5,1481.43 517.5,1530.86 517.5,1564.87 " fill="none" id="JsonFile-&gt;SceneFile" style="stroke: #EAEAEA; stroke-width: 1.0;"/><polygon fill="#EAEAEA" points="517.5,1570.19,521.5,1561.19,517.5,1565.19,513.5,1561.19,517.5,1570.19" style="stroke: #EAEAEA; stroke-width: 1.0;"/><text fill="#FFFFFF" font-family="sans-serif" font-size="20" lengthAdjust="spacingAndGlyphs" textLength="165" x="518.5" y="1241.12">runtime hole data</text><!--MD5=[7be54821be97ec068db48f4d621756aa]
link SceneFile to GodotView--><path d="M517.5,1644.37 C517.5,1669.23 517.5,1702.3 517.5,1728.16 " fill="none" id="SceneFile-&gt;GodotView" style="stroke: #EAEAEA; stroke-width: 1.0;"/><polygon fill="#EAEAEA" points="517.5,1733.23,521.5,1724.23,517.5,1728.23,513.5,1724.23,517.5,1733.23" style="stroke: #EAEAEA; stroke-width: 1.0;"/><text fill="#FFFFFF" font-family="sans-serif" font-size="20" lengthAdjust="spacingAndGlyphs" textLength="156" x="518.5" y="1696.62">preview and play</text><!--MD5=[8839194d924d9722e49be237ae2ef099]
link Dem to GMN64--><path d="M546.46,481.15 C569.9,456.69 604.55,427.58 643,418.74 C670.18,412.49 1619.81,412.56 1647,418.74 C1704.66,431.85 1765,463.06 1805.65,487.05 " fill="none" id="Dem-GMN64" style="stroke: #EAEAEA; stroke-width: 1.0; stroke-dasharray: 7.0,7.0;"/><!--MD5=[7e0c452babec75f20665dc8ec0a34d4c]
link HoleLines to GMN67--><path d="M1272.11,481.23 C1304.06,457.5 1349.35,429.24 1395,418.74 C1429.11,410.89 1990.71,411.74 2025,418.74 C2088.9,431.79 2156.96,463 2203.01,487.02 " fill="none" id="HoleLines-GMN67" style="stroke: #EAEAEA; stroke-width: 1.0; stroke-dasharray: 7.0,7.0;"/><!--MD5=[c922e43ee93e2f9ad6a927a0c90b0973]
@startuml
title Golf Course Design Pipeline

top to bottom direction
skinparam backgroundColor #1E1E1E
skinparam shadowing false
skinparam roundcorner 12
skinparam ArrowColor #EAEAEA
skinparam ArrowFontColor white
skinparam ArrowFontSize 20
skinparam defaultFontColor white
skinparam defaultFontSize 20
skinparam defaultTextAlignment center
skinparam NoteBackgroundColor #2A2A2A
skinparam NoteBorderColor #BBBBBB
skinparam NoteFontColor white
skinparam NoteFontSize 19

rectangle "Designer" as Designer #33415C

package "Gather public source data" #292929 {
  rectangle "Browser and manual tools\nOpenStreetMap\nOverpass Turbo\nQGIS\nUSGS Downloader\nOpenTopography" as Browser #4A3B24
  rectangle "Optional scripted APIs\nOSM known-way API\nOverpass API\nUSGS TNM Access API\nOpenTopography API" as Api #4A3B24
}

package "Choose prepared inputs" #292929 {
  rectangle "Boundary GeoJSON\noptional DEM crop" as Boundary #624A2E
  rectangle "Hole lines GeoJSON\noptional import and zones" as HoleLines #624A2E
  rectangle "Bunker GeoJSON\noptional sand zones" as Bunkers #624A2E
  rectangle "GeoTIFF DEM\nHeightmap mode" as Dem #624A2E
  rectangle "LAS or LAZ lidar\nPoint cloud mode" as Lidar #624A2E
  rectangle "Existing Terrain3D folder\nManual or external mode" as ExternalTerrain #624A2E
}

rectangle "Golf Course\nDesign Dock" as Dock #30445A
rectangle "course_design.tres\neditable settings" as ProjectFile #2F4A3E
rectangle "GDAL + OGR" as Gdal #46314F
rectangle "PDAL rasterization" as Pdal #46314F
rectangle "Staged terrain\n.golf_course_design/" as Staging #294E4A
rectangle "Terrain3D data\nTerrain/" as TerrainFolder #2F3F57
rectangle "Shared base scene\ncourse_base.tscn" as BaseScene #34425C
rectangle "Shared gameplay\ncourse_play.gd" as CoursePlay #34425C
rectangle "course.gd\nextends CoursePlay" as ScriptFile #3C3C3C
rectangle "course.json\ncourse metadata" as JsonFile #3C3C3C
rectangle "course.tscn\none playable scene" as SceneFile #3C3C3C
rectangle "Godot 3D view\nand course selector" as GodotView #274A5A

Designer - -> Browser : point-and-click path
Designer - -> Api : repeatable scripted path
Browser - -> Boundary
Browser - -> HoleLines
Browser - -> Bunkers
Browser - -> Dem
Browser - -> Lidar
Api - -> Boundary
Api - -> HoleLines
Api - -> Dem
Api - -> Lidar

Boundary - -> Dock : optional crop
HoleLines - -> Dock : optional import and painting
Bunkers - -> Dock : optional painting
Dem - -> Dock : Heightmap
Lidar - -> Dock : Point cloud
ExternalTerrain - -> Dock : Manual or external data

Dock - -> ProjectFile : Save
ProjectFile - -> Dock : Load
Dock - -> Pdal : point-cloud build
Lidar - -> Pdal
Pdal - -> Gdal : raster heightmap
Dock - -> Gdal : heightmap build
Dem - -> Gdal
Boundary - -> Gdal : crop raster
HoleLines - -> Gdal : fairways, tees,\nand greens
Bunkers - -> Gdal : sand zones
Gdal - -> Staging : fill gaps,\nwrite EXR,\npaint zones
ExternalTerrain - -> Staging : copy folder
Staging - -> TerrainFolder : replace only\nafter success

Dock - -> ScriptFile : Export
Dock - -> JsonFile : Export
Dock - -> SceneFile : Export
TerrainFolder - -> SceneFile : referenced by
BaseScene - -> SceneFile : inherited root
CoursePlay ..> ScriptFile : inherited behavior
ScriptFile - -> SceneFile : course script
JsonFile - -> SceneFile : runtime hole data
SceneFile - -> GodotView : preview and play

note right of Dem
Use a DEM first when it is available.
Lidar is optional and usually larger.
end note

note right of HoleLines
Holes can also be entered by hand.
Generated zones need numeric hole refs.
end note

note right of Staging
Heightmap and lidar builds are staged first.
An existing Terrain/ folder is moved to a
timestamped backup before replacement.
end note

note right of TerrainFolder
Generated class maps paint rough, fairway,
green, and optional sand texture slots.
Fine edits still happen in Terrain3D.
end note

note right of SceneFile
The export is one scene for the full course,
not one scene per hole.
end note

@enduml

PlantUML version 1.2020.02(Sun Mar 01 02:22:07 PST 2020)
(GPL source distribution)
Java Runtime: OpenJDK Runtime Environment
JVM: OpenJDK 64-Bit Server VM
Java Version: 21.0.11+10-1-25.10.2-Ubuntu
Operating System: Linux
Default Encoding: UTF-8
Language: en
Country: null
--></g></svg>