{
	"asset":{
		"generator":"Khronos glTF Blender I/O v5.0.21",
		"version":"2.0"
	},
	"scene":0,
	"scenes":[
		{
			"name":"Scene",
			"nodes":[
				0,
				33,
				34
			]
		}
	],
	"nodes":[
		{
			"mesh":0,
			"name":"Cylinder",
			"rotation":[
				0,
				-0.09125592559576035,
				0,
				0.9958274960517883
			]
		},
		{
			"name":"Bone.005",
			"rotation":[
				-1.1675456157433928e-09,
				8.552498087510685e-08,
				-0.008452110923826694,
				0.9999642968177795
			],
			"translation":[
				5.099385589346639e-07,
				0.3684331476688385,
				9.993073035730049e-11
			]
		},
		{
			"children":[
				1
			],
			"name":"Bone.004",
			"rotation":[
				3.895969380440789e-10,
				-9.900073649760088e-08,
				0.00281466799788177,
				0.9999960660934448
			],
			"scale":[
				0.9999998807907104,
				0.9999997615814209,
				1
			],
			"translation":[
				-3.504595724734827e-08,
				0.36843016743659973,
				-9.805489753489383e-13
			]
		},
		{
			"children":[
				2
			],
			"name":"Bone.003",
			"rotation":[
				-5.095690536194297e-11,
				8.214774993575702e-08,
				0.00012191493442514911,
				1
			],
			"translation":[
				-4.598831537805381e-07,
				0.36843031644821167,
				5.577476258622482e-10
			]
		},
		{
			"children":[
				3
			],
			"name":"Bone.002",
			"rotation":[
				-1.1952876466381213e-09,
				-4.297510614037492e-08,
				-0.008122513070702553,
				0.9999670386314392
			],
			"scale":[
				1,
				1.0000001192092896,
				1
			],
			"translation":[
				9.23666448215954e-07,
				0.36846986413002014,
				-1.8565060599939898e-10
			]
		},
		{
			"children":[
				4
			],
			"name":"Bone.001",
			"rotation":[
				1.7489030224027147e-09,
				-1.0455379673146581e-08,
				0.018502477556467056,
				0.9998288154602051
			],
			"scale":[
				1,
				0.9999999403953552,
				1.0000001192092896
			],
			"translation":[
				-2.877490032915375e-07,
				0.3685208857059479,
				4.9965365178650245e-11
			]
		},
		{
			"children":[
				5
			],
			"name":"Bone",
			"rotation":[
				-2.5850432905372145e-08,
				-4.257386621020487e-08,
				0.013477826490998268,
				0.9999091625213623
			],
			"scale":[
				1,
				0.9999999403953552,
				1
			],
			"translation":[
				0.01426856592297554,
				0.027637019753456116,
				5.249689571940053e-12
			]
		},
		{
			"name":"Bone.011",
			"rotation":[
				-1.198570132032728e-09,
				6.729549539841173e-08,
				-0.008452127687633038,
				0.9999642968177795
			],
			"scale":[
				0.9999998807907104,
				0.9999999403953552,
				1
			],
			"translation":[
				8.258922434833949e-08,
				0.36843329668045044,
				1.134594640461728e-10
			]
		},
		{
			"children":[
				7
			],
			"name":"Bone.010",
			"rotation":[
				3.4142486060595445e-10,
				-4.889674798391752e-08,
				0.0028147180564701557,
				0.9999960660934448
			],
			"scale":[
				0.9999998807907104,
				0.9999997615814209,
				1
			],
			"translation":[
				3.3409600064260303e-07,
				0.36842983961105347,
				-6.487539394584019e-10
			]
		},
		{
			"children":[
				8
			],
			"name":"Bone.009",
			"rotation":[
				1.0813554912614265e-11,
				-1.0659929827738779e-08,
				0.00012181710917502642,
				1
			],
			"scale":[
				1,
				0.9999999403953552,
				1
			],
			"translation":[
				1.570690670860131e-07,
				0.3684302568435669,
				2.8182967071188614e-10
			]
		},
		{
			"children":[
				9
			],
			"name":"Bone.008",
			"rotation":[
				-1.1527108156883514e-09,
				5.8976148409328744e-08,
				-0.008122405968606472,
				0.9999670386314392
			],
			"scale":[
				0.9999999403953552,
				1,
				1
			],
			"translation":[
				-5.749878937422181e-07,
				0.36846983432769775,
				-2.602291715447791e-10
			]
		},
		{
			"children":[
				10
			],
			"name":"Bone.007",
			"rotation":[
				2.5477595588796476e-09,
				-5.3005745570544605e-08,
				0.018502436578273773,
				0.9998288154602051
			],
			"scale":[
				1,
				1.0000001192092896,
				1.0000001192092896
			],
			"translation":[
				-2.886837080495752e-07,
				0.3685208857059479,
				-6.519940143334679e-11
			]
		},
		{
			"children":[
				11
			],
			"name":"Bone.006",
			"rotation":[
				-2.5862963326517274e-08,
				-4.443572976242649e-08,
				0.013477824628353119,
				0.9999091625213623
			],
			"scale":[
				1,
				0.9999999403953552,
				1
			],
			"translation":[
				0.4044596552848816,
				0.04685024544596672,
				8.90738871550667e-13
			]
		},
		{
			"name":"Bone.017",
			"rotation":[
				-1.198570132032728e-09,
				6.729549539841173e-08,
				-0.008452127687633038,
				0.9999642968177795
			],
			"scale":[
				0.9999998807907104,
				0.9999999403953552,
				1
			],
			"translation":[
				5.58495059976849e-07,
				0.3684331178665161,
				1.0811618267325684e-10
			]
		},
		{
			"children":[
				13
			],
			"name":"Bone.016",
			"rotation":[
				3.4143093907701427e-10,
				-4.889550808684362e-08,
				0.0028147194534540176,
				0.9999960660934448
			],
			"scale":[
				0.9999998807907104,
				0.9999997615814209,
				1
			],
			"translation":[
				-1.4763062949896266e-07,
				0.36842989921569824,
				-7.025278137007263e-10
			]
		},
		{
			"children":[
				14
			],
			"name":"Bone.015",
			"rotation":[
				1.4262660497088575e-11,
				-1.6230959687391078e-08,
				0.00012181223428342491,
				1
			],
			"scale":[
				1,
				0.9999999403953552,
				1
			],
			"translation":[
				6.41502253984072e-07,
				0.36843013763427734,
				3.0019009500392713e-10
			]
		},
		{
			"children":[
				15
			],
			"name":"Bone.014",
			"rotation":[
				-1.1115933729044514e-09,
				6.454595791183237e-08,
				-0.008122403174638748,
				0.9999670386314392
			],
			"scale":[
				0.9999999403953552,
				1,
				1
			],
			"translation":[
				-1.0518250519453431e-06,
				0.36846983432769775,
				-2.6625457394402474e-10
			]
		},
		{
			"children":[
				16
			],
			"name":"Bone.013",
			"rotation":[
				2.5477595588796476e-09,
				-5.3005745570544605e-08,
				0.018502436578273773,
				0.9998288154602051
			],
			"scale":[
				1,
				1.0000001192092896,
				1.0000001192092896
			],
			"translation":[
				-2.886837080495752e-07,
				0.3685208857059479,
				-5.60476109967567e-11
			]
		},
		{
			"children":[
				17
			],
			"name":"Bone.012",
			"rotation":[
				-2.5862963326517274e-08,
				-4.443572976242649e-08,
				0.013477824628353119,
				0.9999091625213623
			],
			"scale":[
				1,
				0.9999999403953552,
				1
			],
			"translation":[
				0.8054391741752625,
				0.06659470498561859,
				3.6872310760216465e-12
			]
		},
		{
			"name":"Bone.023",
			"rotation":[
				-1.1572457436770378e-09,
				5.9458475476503736e-08,
				-0.00845213420689106,
				0.9999642968177795
			],
			"scale":[
				0.9999998807907104,
				1,
				1
			],
			"translation":[
				1.0371949201726238e-06,
				0.36843323707580566,
				-1.4085799193708226e-10
			]
		},
		{
			"children":[
				19
			],
			"name":"Bone.022",
			"rotation":[
				5.987108031568766e-10,
				-1.1195645299721946e-08,
				0.0028146402910351753,
				0.9999960660934448
			],
			"scale":[
				0.9999999403953552,
				0.9999998211860657,
				0.9999999403953552
			],
			"translation":[
				-3.896839189110324e-07,
				0.3684298098087311,
				1.9838353182421997e-10
			]
		},
		{
			"children":[
				20
			],
			"name":"Bone.021",
			"rotation":[
				-1.067857607894851e-10,
				-9.528807254355343e-08,
				0.00012196713942103088,
				1
			],
			"scale":[
				1.0000001192092896,
				1,
				1
			],
			"translation":[
				-9.277754564607221e-09,
				0.36843031644821167,
				2.7128521651320625e-11
			]
		},
		{
			"children":[
				21
			],
			"name":"Bone.020",
			"rotation":[
				-6.897204474221041e-10,
				1.0586155951841647e-07,
				-0.008122476749122143,
				0.9999670386314392
			],
			"scale":[
				0.9999998807907104,
				0.9999998211860657,
				0.9999998807907104
			],
			"translation":[
				3.749611039438605e-07,
				0.36846986413002014,
				3.979039320256561e-12
			]
		},
		{
			"children":[
				22
			],
			"name":"Bone.019",
			"rotation":[
				3.4844824803315078e-09,
				-1.26803074707027e-08,
				0.01850235089659691,
				0.9998288154602051
			],
			"scale":[
				1,
				1.0000001192092896,
				0.9999999403953552
			],
			"translation":[
				-7.022636054898612e-07,
				0.3685208559036255,
				1.5086243365658447e-10
			]
		},
		{
			"children":[
				23
			],
			"name":"Bone.018",
			"rotation":[
				-2.3126355941371912e-08,
				-8.458442124492649e-08,
				0.013477904722094536,
				0.9999091625213623
			],
			"scale":[
				1,
				0.9999999403953552,
				1.0000001192092896
			],
			"translation":[
				1.194456696510315,
				0.08575014024972916,
				-6.586051148893546e-13
			]
		},
		{
			"name":"Bone.029",
			"rotation":[
				-8.890104208347793e-10,
				6.621396408945657e-08,
				-0.008452128618955612,
				0.9999642968177795
			],
			"scale":[
				0.9999998807907104,
				1,
				1
			],
			"translation":[
				8.910851079235727e-08,
				0.3684332072734833,
				2.708020474528894e-10
			]
		},
		{
			"children":[
				25
			],
			"name":"Bone.028",
			"rotation":[
				5.922554668913449e-10,
				-1.0863229427116039e-08,
				0.0028146407566964626,
				0.9999960660934448
			],
			"scale":[
				0.9999999403953552,
				0.9999998211860657,
				0.9999999403953552
			],
			"translation":[
				9.192629590870638e-08,
				0.368429958820343,
				2.0816059986827895e-10
			]
		},
		{
			"children":[
				26
			],
			"name":"Bone.027",
			"rotation":[
				-1.0726820126594205e-10,
				-9.155606051081122e-08,
				0.00012197360774734989,
				1
			],
			"scale":[
				1.0000001192092896,
				1,
				1
			],
			"translation":[
				-2.012377642301999e-08,
				0.3684302568435669,
				-1.5430856592502096e-10
			]
		},
		{
			"children":[
				27
			],
			"name":"Bone.026",
			"rotation":[
				-7.149681402474073e-10,
				1.011743577805646e-07,
				-0.008122483268380165,
				0.9999670386314392
			],
			"scale":[
				0.9999998807907104,
				0.9999998211860657,
				0.9999998807907104
			],
			"translation":[
				-5.759192163168336e-07,
				0.36846980452537537,
				-9.78843672783114e-11
			]
		},
		{
			"children":[
				28
			],
			"name":"Bone.025",
			"rotation":[
				3.2863460841525693e-09,
				-1.0719967136196829e-08,
				0.018502354621887207,
				0.9998288154602051
			],
			"scale":[
				1,
				1,
				0.9999999403953552
			],
			"translation":[
				2.532738108129706e-07,
				0.3685207664966583,
				3.149125404888764e-11
			]
		},
		{
			"children":[
				29
			],
			"name":"Bone.024",
			"rotation":[
				6.705100918935614e-09,
				-8.272626672578554e-08,
				0.013477906584739685,
				0.9999091625213623
			],
			"scale":[
				1,
				1,
				1.0000001192092896
			],
			"translation":[
				1.5875149965286255,
				0.10510455071926117,
				-5.049585749539176e-12
			]
		},
		{
			"name":"neutral_bone",
			"rotation":[
				-0.7071067690849304,
				0,
				0,
				0.7071067690849304
			]
		},
		{
			"mesh":1,
			"name":"OSG_Logo",
			"skin":0
		},
		{
			"children":[
				32,
				6,
				12,
				18,
				24,
				30,
				31
			],
			"name":"Armature",
			"rotation":[
				-0.0008324425434693694,
				0.0007924612727947533,
				-0.7242857813835144,
				0.689499020576477
			],
			"scale":[
				0.2855031490325928,
				0.2855031490325928,
				0.2855031490325928
			],
			"translation":[
				0,
				2.138784646987915,
				0
			]
		},
		{
			"name":"Wind",
			"rotation":[
				0,
				0,
				-0.7123005986213684,
				0.7018746137619019
			],
			"translation":[
				-2.9719552993774414,
				1.7937278747558594,
				0
			]
		}
	],
	"animations":[
		{
			"channels":[
				{
					"sampler":0,
					"target":{
						"node":6,
						"path":"translation"
					}
				},
				{
					"sampler":1,
					"target":{
						"node":6,
						"path":"rotation"
					}
				},
				{
					"sampler":2,
					"target":{
						"node":6,
						"path":"scale"
					}
				},
				{
					"sampler":3,
					"target":{
						"node":5,
						"path":"translation"
					}
				},
				{
					"sampler":4,
					"target":{
						"node":5,
						"path":"rotation"
					}
				},
				{
					"sampler":5,
					"target":{
						"node":5,
						"path":"scale"
					}
				},
				{
					"sampler":6,
					"target":{
						"node":4,
						"path":"translation"
					}
				},
				{
					"sampler":7,
					"target":{
						"node":4,
						"path":"rotation"
					}
				},
				{
					"sampler":8,
					"target":{
						"node":4,
						"path":"scale"
					}
				},
				{
					"sampler":9,
					"target":{
						"node":3,
						"path":"translation"
					}
				},
				{
					"sampler":10,
					"target":{
						"node":3,
						"path":"rotation"
					}
				},
				{
					"sampler":11,
					"target":{
						"node":3,
						"path":"scale"
					}
				},
				{
					"sampler":12,
					"target":{
						"node":2,
						"path":"translation"
					}
				},
				{
					"sampler":13,
					"target":{
						"node":2,
						"path":"rotation"
					}
				},
				{
					"sampler":14,
					"target":{
						"node":2,
						"path":"scale"
					}
				},
				{
					"sampler":15,
					"target":{
						"node":1,
						"path":"translation"
					}
				},
				{
					"sampler":16,
					"target":{
						"node":1,
						"path":"rotation"
					}
				},
				{
					"sampler":17,
					"target":{
						"node":1,
						"path":"scale"
					}
				},
				{
					"sampler":18,
					"target":{
						"node":12,
						"path":"translation"
					}
				},
				{
					"sampler":19,
					"target":{
						"node":12,
						"path":"rotation"
					}
				},
				{
					"sampler":20,
					"target":{
						"node":12,
						"path":"scale"
					}
				},
				{
					"sampler":21,
					"target":{
						"node":11,
						"path":"translation"
					}
				},
				{
					"sampler":22,
					"target":{
						"node":11,
						"path":"rotation"
					}
				},
				{
					"sampler":23,
					"target":{
						"node":11,
						"path":"scale"
					}
				},
				{
					"sampler":24,
					"target":{
						"node":10,
						"path":"translation"
					}
				},
				{
					"sampler":25,
					"target":{
						"node":10,
						"path":"rotation"
					}
				},
				{
					"sampler":26,
					"target":{
						"node":10,
						"path":"scale"
					}
				},
				{
					"sampler":27,
					"target":{
						"node":9,
						"path":"translation"
					}
				},
				{
					"sampler":28,
					"target":{
						"node":9,
						"path":"rotation"
					}
				},
				{
					"sampler":29,
					"target":{
						"node":9,
						"path":"scale"
					}
				},
				{
					"sampler":30,
					"target":{
						"node":8,
						"path":"translation"
					}
				},
				{
					"sampler":31,
					"target":{
						"node":8,
						"path":"rotation"
					}
				},
				{
					"sampler":32,
					"target":{
						"node":8,
						"path":"scale"
					}
				},
				{
					"sampler":33,
					"target":{
						"node":7,
						"path":"translation"
					}
				},
				{
					"sampler":34,
					"target":{
						"node":7,
						"path":"rotation"
					}
				},
				{
					"sampler":35,
					"target":{
						"node":7,
						"path":"scale"
					}
				},
				{
					"sampler":36,
					"target":{
						"node":18,
						"path":"translation"
					}
				},
				{
					"sampler":37,
					"target":{
						"node":18,
						"path":"rotation"
					}
				},
				{
					"sampler":38,
					"target":{
						"node":18,
						"path":"scale"
					}
				},
				{
					"sampler":39,
					"target":{
						"node":17,
						"path":"translation"
					}
				},
				{
					"sampler":40,
					"target":{
						"node":17,
						"path":"rotation"
					}
				},
				{
					"sampler":41,
					"target":{
						"node":17,
						"path":"scale"
					}
				},
				{
					"sampler":42,
					"target":{
						"node":16,
						"path":"translation"
					}
				},
				{
					"sampler":43,
					"target":{
						"node":16,
						"path":"rotation"
					}
				},
				{
					"sampler":44,
					"target":{
						"node":16,
						"path":"scale"
					}
				},
				{
					"sampler":45,
					"target":{
						"node":15,
						"path":"translation"
					}
				},
				{
					"sampler":46,
					"target":{
						"node":15,
						"path":"rotation"
					}
				},
				{
					"sampler":47,
					"target":{
						"node":15,
						"path":"scale"
					}
				},
				{
					"sampler":48,
					"target":{
						"node":14,
						"path":"translation"
					}
				},
				{
					"sampler":49,
					"target":{
						"node":14,
						"path":"rotation"
					}
				},
				{
					"sampler":50,
					"target":{
						"node":14,
						"path":"scale"
					}
				},
				{
					"sampler":51,
					"target":{
						"node":13,
						"path":"translation"
					}
				},
				{
					"sampler":52,
					"target":{
						"node":13,
						"path":"rotation"
					}
				},
				{
					"sampler":53,
					"target":{
						"node":13,
						"path":"scale"
					}
				},
				{
					"sampler":54,
					"target":{
						"node":24,
						"path":"translation"
					}
				},
				{
					"sampler":55,
					"target":{
						"node":24,
						"path":"rotation"
					}
				},
				{
					"sampler":56,
					"target":{
						"node":24,
						"path":"scale"
					}
				},
				{
					"sampler":57,
					"target":{
						"node":23,
						"path":"translation"
					}
				},
				{
					"sampler":58,
					"target":{
						"node":23,
						"path":"rotation"
					}
				},
				{
					"sampler":59,
					"target":{
						"node":23,
						"path":"scale"
					}
				},
				{
					"sampler":60,
					"target":{
						"node":22,
						"path":"translation"
					}
				},
				{
					"sampler":61,
					"target":{
						"node":22,
						"path":"rotation"
					}
				},
				{
					"sampler":62,
					"target":{
						"node":22,
						"path":"scale"
					}
				},
				{
					"sampler":63,
					"target":{
						"node":21,
						"path":"translation"
					}
				},
				{
					"sampler":64,
					"target":{
						"node":21,
						"path":"rotation"
					}
				},
				{
					"sampler":65,
					"target":{
						"node":21,
						"path":"scale"
					}
				},
				{
					"sampler":66,
					"target":{
						"node":20,
						"path":"translation"
					}
				},
				{
					"sampler":67,
					"target":{
						"node":20,
						"path":"rotation"
					}
				},
				{
					"sampler":68,
					"target":{
						"node":20,
						"path":"scale"
					}
				},
				{
					"sampler":69,
					"target":{
						"node":19,
						"path":"translation"
					}
				},
				{
					"sampler":70,
					"target":{
						"node":19,
						"path":"rotation"
					}
				},
				{
					"sampler":71,
					"target":{
						"node":19,
						"path":"scale"
					}
				},
				{
					"sampler":72,
					"target":{
						"node":30,
						"path":"translation"
					}
				},
				{
					"sampler":73,
					"target":{
						"node":30,
						"path":"rotation"
					}
				},
				{
					"sampler":74,
					"target":{
						"node":30,
						"path":"scale"
					}
				},
				{
					"sampler":75,
					"target":{
						"node":29,
						"path":"translation"
					}
				},
				{
					"sampler":76,
					"target":{
						"node":29,
						"path":"rotation"
					}
				},
				{
					"sampler":77,
					"target":{
						"node":29,
						"path":"scale"
					}
				},
				{
					"sampler":78,
					"target":{
						"node":28,
						"path":"translation"
					}
				},
				{
					"sampler":79,
					"target":{
						"node":28,
						"path":"rotation"
					}
				},
				{
					"sampler":80,
					"target":{
						"node":28,
						"path":"scale"
					}
				},
				{
					"sampler":81,
					"target":{
						"node":27,
						"path":"translation"
					}
				},
				{
					"sampler":82,
					"target":{
						"node":27,
						"path":"rotation"
					}
				},
				{
					"sampler":83,
					"target":{
						"node":27,
						"path":"scale"
					}
				},
				{
					"sampler":84,
					"target":{
						"node":26,
						"path":"translation"
					}
				},
				{
					"sampler":85,
					"target":{
						"node":26,
						"path":"rotation"
					}
				},
				{
					"sampler":86,
					"target":{
						"node":26,
						"path":"scale"
					}
				},
				{
					"sampler":87,
					"target":{
						"node":25,
						"path":"translation"
					}
				},
				{
					"sampler":88,
					"target":{
						"node":25,
						"path":"rotation"
					}
				},
				{
					"sampler":89,
					"target":{
						"node":25,
						"path":"scale"
					}
				},
				{
					"sampler":90,
					"target":{
						"node":33,
						"path":"translation"
					}
				},
				{
					"sampler":91,
					"target":{
						"node":33,
						"path":"rotation"
					}
				},
				{
					"sampler":92,
					"target":{
						"node":33,
						"path":"scale"
					}
				}
			],
			"name":"Action",
			"samplers":[
				{
					"input":11,
					"interpolation":"STEP",
					"output":12
				},
				{
					"input":13,
					"interpolation":"LINEAR",
					"output":14
				},
				{
					"input":11,
					"interpolation":"STEP",
					"output":15
				},
				{
					"input":11,
					"interpolation":"LINEAR",
					"output":16
				},
				{
					"input":13,
					"interpolation":"LINEAR",
					"output":17
				},
				{
					"input":11,
					"interpolation":"STEP",
					"output":18
				},
				{
					"input":11,
					"interpolation":"LINEAR",
					"output":19
				},
				{
					"input":13,
					"interpolation":"LINEAR",
					"output":20
				},
				{
					"input":11,
					"interpolation":"LINEAR",
					"output":21
				},
				{
					"input":11,
					"interpolation":"LINEAR",
					"output":22
				},
				{
					"input":13,
					"interpolation":"LINEAR",
					"output":23
				},
				{
					"input":11,
					"interpolation":"LINEAR",
					"output":24
				},
				{
					"input":11,
					"interpolation":"LINEAR",
					"output":25
				},
				{
					"input":13,
					"interpolation":"LINEAR",
					"output":26
				},
				{
					"input":11,
					"interpolation":"STEP",
					"output":27
				},
				{
					"input":11,
					"interpolation":"LINEAR",
					"output":28
				},
				{
					"input":13,
					"interpolation":"LINEAR",
					"output":29
				},
				{
					"input":11,
					"interpolation":"LINEAR",
					"output":30
				},
				{
					"input":11,
					"interpolation":"STEP",
					"output":31
				},
				{
					"input":11,
					"interpolation":"STEP",
					"output":32
				},
				{
					"input":11,
					"interpolation":"STEP",
					"output":33
				},
				{
					"input":11,
					"interpolation":"STEP",
					"output":34
				},
				{
					"input":11,
					"interpolation":"STEP",
					"output":35
				},
				{
					"input":11,
					"interpolation":"STEP",
					"output":36
				},
				{
					"input":11,
					"interpolation":"STEP",
					"output":37
				},
				{
					"input":11,
					"interpolation":"STEP",
					"output":38
				},
				{
					"input":11,
					"interpolation":"STEP",
					"output":39
				},
				{
					"input":11,
					"interpolation":"STEP",
					"output":40
				},
				{
					"input":11,
					"interpolation":"STEP",
					"output":41
				},
				{
					"input":11,
					"interpolation":"STEP",
					"output":42
				},
				{
					"input":11,
					"interpolation":"STEP",
					"output":43
				},
				{
					"input":11,
					"interpolation":"STEP",
					"output":44
				},
				{
					"input":11,
					"interpolation":"STEP",
					"output":45
				},
				{
					"input":11,
					"interpolation":"STEP",
					"output":46
				},
				{
					"input":11,
					"interpolation":"STEP",
					"output":47
				},
				{
					"input":11,
					"interpolation":"STEP",
					"output":48
				},
				{
					"input":11,
					"interpolation":"STEP",
					"output":49
				},
				{
					"input":11,
					"interpolation":"STEP",
					"output":32
				},
				{
					"input":11,
					"interpolation":"STEP",
					"output":33
				},
				{
					"input":11,
					"interpolation":"STEP",
					"output":50
				},
				{
					"input":11,
					"interpolation":"STEP",
					"output":35
				},
				{
					"input":11,
					"interpolation":"STEP",
					"output":36
				},
				{
					"input":11,
					"interpolation":"STEP",
					"output":51
				},
				{
					"input":11,
					"interpolation":"STEP",
					"output":52
				},
				{
					"input":11,
					"interpolation":"STEP",
					"output":39
				},
				{
					"input":11,
					"interpolation":"STEP",
					"output":53
				},
				{
					"input":11,
					"interpolation":"STEP",
					"output":54
				},
				{
					"input":11,
					"interpolation":"STEP",
					"output":42
				},
				{
					"input":11,
					"interpolation":"STEP",
					"output":55
				},
				{
					"input":11,
					"interpolation":"STEP",
					"output":56
				},
				{
					"input":11,
					"interpolation":"STEP",
					"output":45
				},
				{
					"input":11,
					"interpolation":"STEP",
					"output":57
				},
				{
					"input":11,
					"interpolation":"STEP",
					"output":58
				},
				{
					"input":11,
					"interpolation":"STEP",
					"output":48
				},
				{
					"input":11,
					"interpolation":"STEP",
					"output":59
				},
				{
					"input":11,
					"interpolation":"STEP",
					"output":60
				},
				{
					"input":11,
					"interpolation":"STEP",
					"output":61
				},
				{
					"input":11,
					"interpolation":"STEP",
					"output":62
				},
				{
					"input":11,
					"interpolation":"STEP",
					"output":63
				},
				{
					"input":11,
					"interpolation":"STEP",
					"output":64
				},
				{
					"input":11,
					"interpolation":"STEP",
					"output":65
				},
				{
					"input":11,
					"interpolation":"STEP",
					"output":66
				},
				{
					"input":11,
					"interpolation":"STEP",
					"output":67
				},
				{
					"input":11,
					"interpolation":"STEP",
					"output":68
				},
				{
					"input":11,
					"interpolation":"STEP",
					"output":69
				},
				{
					"input":11,
					"interpolation":"STEP",
					"output":70
				},
				{
					"input":11,
					"interpolation":"STEP",
					"output":71
				},
				{
					"input":11,
					"interpolation":"STEP",
					"output":72
				},
				{
					"input":11,
					"interpolation":"STEP",
					"output":67
				},
				{
					"input":11,
					"interpolation":"STEP",
					"output":73
				},
				{
					"input":11,
					"interpolation":"STEP",
					"output":74
				},
				{
					"input":11,
					"interpolation":"STEP",
					"output":75
				},
				{
					"input":11,
					"interpolation":"STEP",
					"output":76
				},
				{
					"input":11,
					"interpolation":"STEP",
					"output":77
				},
				{
					"input":11,
					"interpolation":"STEP",
					"output":45
				},
				{
					"input":11,
					"interpolation":"STEP",
					"output":78
				},
				{
					"input":11,
					"interpolation":"STEP",
					"output":79
				},
				{
					"input":11,
					"interpolation":"STEP",
					"output":36
				},
				{
					"input":11,
					"interpolation":"STEP",
					"output":80
				},
				{
					"input":11,
					"interpolation":"STEP",
					"output":81
				},
				{
					"input":11,
					"interpolation":"STEP",
					"output":82
				},
				{
					"input":11,
					"interpolation":"STEP",
					"output":83
				},
				{
					"input":11,
					"interpolation":"STEP",
					"output":84
				},
				{
					"input":11,
					"interpolation":"STEP",
					"output":70
				},
				{
					"input":11,
					"interpolation":"STEP",
					"output":85
				},
				{
					"input":11,
					"interpolation":"STEP",
					"output":86
				},
				{
					"input":11,
					"interpolation":"STEP",
					"output":67
				},
				{
					"input":11,
					"interpolation":"STEP",
					"output":87
				},
				{
					"input":11,
					"interpolation":"STEP",
					"output":88
				},
				{
					"input":11,
					"interpolation":"STEP",
					"output":45
				},
				{
					"input":11,
					"interpolation":"STEP",
					"output":89
				},
				{
					"input":11,
					"interpolation":"STEP",
					"output":90
				},
				{
					"input":11,
					"interpolation":"STEP",
					"output":91
				}
			]
		},
		{
			"channels":[
				{
					"sampler":0,
					"target":{
						"node":32,
						"path":"translation"
					}
				},
				{
					"sampler":1,
					"target":{
						"node":32,
						"path":"rotation"
					}
				},
				{
					"sampler":2,
					"target":{
						"node":32,
						"path":"scale"
					}
				}
			],
			"name":"OSG_LogoAction",
			"samplers":[
				{
					"input":92,
					"interpolation":"STEP",
					"output":93
				},
				{
					"input":92,
					"interpolation":"STEP",
					"output":94
				},
				{
					"input":92,
					"interpolation":"STEP",
					"output":95
				}
			]
		}
	],
	"materials":[
		{
			"doubleSided":true,
			"name":"Material",
			"pbrMetallicRoughness":{
				"baseColorFactor":[
					0.19755876064300537,
					0.19755876064300537,
					0.19755876064300537,
					1
				],
				"roughnessFactor":0.5
			}
		},
		{
			"alphaMode":"BLEND",
			"doubleSided":true,
			"name":"OSG_Logo",
			"pbrMetallicRoughness":{
				"baseColorTexture":{
					"index":0
				},
				"metallicFactor":0,
				"roughnessFactor":0.5
			}
		}
	],
	"meshes":[
		{
			"name":"Cylinder",
			"primitives":[
				{
					"attributes":{
						"POSITION":0,
						"NORMAL":1,
						"TEXCOORD_0":2
					},
					"indices":3,
					"material":0
				}
			]
		},
		{
			"name":"OSG_Logo",
			"primitives":[
				{
					"attributes":{
						"POSITION":4,
						"NORMAL":5,
						"TEXCOORD_0":6,
						"JOINTS_0":7,
						"WEIGHTS_0":8
					},
					"indices":9,
					"material":1
				}
			]
		}
	],
	"textures":[
		{
			"sampler":0,
			"source":0
		}
	],
	"images":[
		{
			"mimeType":"image/png",
			"name":"OSG_Logo",
			"uri":"OSG_Logo.png"
		}
	],
	"skins":[
		{
			"inverseBindMatrices":10,
			"joints":[
				6,
				5,
				4,
				3,
				2,
				1,
				12,
				11,
				10,
				9,
				8,
				7,
				18,
				17,
				16,
				15,
				14,
				13,
				24,
				23,
				22,
				21,
				20,
				19,
				30,
				29,
				28,
				27,
				26,
				25,
				31
			],
			"name":"Armature"
		}
	],
	"accessors":[
		{
			"bufferView":0,
			"componentType":5126,
			"count":96,
			"max":[
				0.016193434596061707,
				2.137498140335083,
				0.0056891897693276405
			],
			"min":[
				0.0034980615600943565,
				0.003898143768310547,
				-0.007006184197962284
			],
			"type":"VEC3"
		},
		{
			"bufferView":1,
			"componentType":5126,
			"count":96,
			"type":"VEC3"
		},
		{
			"bufferView":2,
			"componentType":5126,
			"count":96,
			"type":"VEC2"
		},
		{
			"bufferView":3,
			"componentType":5123,
			"count":180,
			"type":"SCALAR"
		},
		{
			"bufferView":4,
			"componentType":5126,
			"count":35,
			"max":[
				0.644205629825592,
				2.1338858604431152,
				0.009969517588615417
			],
			"min":[
				0.007628941908478737,
				1.6836801767349243,
				-0.004957821220159531
			],
			"type":"VEC3"
		},
		{
			"bufferView":5,
			"componentType":5126,
			"count":35,
			"type":"VEC3"
		},
		{
			"bufferView":6,
			"componentType":5126,
			"count":35,
			"type":"VEC2"
		},
		{
			"bufferView":7,
			"componentType":5121,
			"count":35,
			"type":"VEC4"
		},
		{
			"bufferView":8,
			"componentType":5126,
			"count":35,
			"type":"VEC4"
		},
		{
			"bufferView":9,
			"componentType":5123,
			"count":144,
			"type":"SCALAR"
		},
		{
			"bufferView":10,
			"componentType":5126,
			"count":31,
			"type":"MAT4"
		},
		{
			"bufferView":11,
			"componentType":5126,
			"count":2,
			"max":[
				10.416666666666666
			],
			"min":[
				0
			],
			"type":"SCALAR"
		},
		{
			"bufferView":12,
			"componentType":5126,
			"count":2,
			"type":"VEC3"
		},
		{
			"bufferView":13,
			"componentType":5126,
			"count":251,
			"max":[
				10.416666666666666
			],
			"min":[
				0
			],
			"type":"SCALAR"
		},
		{
			"bufferView":14,
			"componentType":5126,
			"count":251,
			"type":"VEC4"
		},
		{
			"bufferView":15,
			"componentType":5126,
			"count":2,
			"type":"VEC3"
		},
		{
			"bufferView":16,
			"componentType":5126,
			"count":2,
			"type":"VEC3"
		},
		{
			"bufferView":17,
			"componentType":5126,
			"count":251,
			"type":"VEC4"
		},
		{
			"bufferView":18,
			"componentType":5126,
			"count":2,
			"type":"VEC3"
		},
		{
			"bufferView":19,
			"componentType":5126,
			"count":2,
			"type":"VEC3"
		},
		{
			"bufferView":20,
			"componentType":5126,
			"count":251,
			"type":"VEC4"
		},
		{
			"bufferView":21,
			"componentType":5126,
			"count":2,
			"type":"VEC3"
		},
		{
			"bufferView":22,
			"componentType":5126,
			"count":2,
			"type":"VEC3"
		},
		{
			"bufferView":23,
			"componentType":5126,
			"count":251,
			"type":"VEC4"
		},
		{
			"bufferView":24,
			"componentType":5126,
			"count":2,
			"type":"VEC3"
		},
		{
			"bufferView":25,
			"componentType":5126,
			"count":2,
			"type":"VEC3"
		},
		{
			"bufferView":26,
			"componentType":5126,
			"count":251,
			"type":"VEC4"
		},
		{
			"bufferView":27,
			"componentType":5126,
			"count":2,
			"type":"VEC3"
		},
		{
			"bufferView":28,
			"componentType":5126,
			"count":2,
			"type":"VEC3"
		},
		{
			"bufferView":29,
			"componentType":5126,
			"count":251,
			"type":"VEC4"
		},
		{
			"bufferView":30,
			"componentType":5126,
			"count":2,
			"type":"VEC3"
		},
		{
			"bufferView":31,
			"componentType":5126,
			"count":2,
			"type":"VEC3"
		},
		{
			"bufferView":32,
			"componentType":5126,
			"count":2,
			"type":"VEC4"
		},
		{
			"bufferView":33,
			"componentType":5126,
			"count":2,
			"type":"VEC3"
		},
		{
			"bufferView":34,
			"componentType":5126,
			"count":2,
			"type":"VEC3"
		},
		{
			"bufferView":35,
			"componentType":5126,
			"count":2,
			"type":"VEC4"
		},
		{
			"bufferView":36,
			"componentType":5126,
			"count":2,
			"type":"VEC3"
		},
		{
			"bufferView":37,
			"componentType":5126,
			"count":2,
			"type":"VEC3"
		},
		{
			"bufferView":38,
			"componentType":5126,
			"count":2,
			"type":"VEC4"
		},
		{
			"bufferView":39,
			"componentType":5126,
			"count":2,
			"type":"VEC3"
		},
		{
			"bufferView":40,
			"componentType":5126,
			"count":2,
			"type":"VEC3"
		},
		{
			"bufferView":41,
			"componentType":5126,
			"count":2,
			"type":"VEC4"
		},
		{
			"bufferView":42,
			"componentType":5126,
			"count":2,
			"type":"VEC3"
		},
		{
			"bufferView":43,
			"componentType":5126,
			"count":2,
			"type":"VEC3"
		},
		{
			"bufferView":44,
			"componentType":5126,
			"count":2,
			"type":"VEC4"
		},
		{
			"bufferView":45,
			"componentType":5126,
			"count":2,
			"type":"VEC3"
		},
		{
			"bufferView":46,
			"componentType":5126,
			"count":2,
			"type":"VEC3"
		},
		{
			"bufferView":47,
			"componentType":5126,
			"count":2,
			"type":"VEC4"
		},
		{
			"bufferView":48,
			"componentType":5126,
			"count":2,
			"type":"VEC3"
		},
		{
			"bufferView":49,
			"componentType":5126,
			"count":2,
			"type":"VEC3"
		},
		{
			"bufferView":50,
			"componentType":5126,
			"count":2,
			"type":"VEC3"
		},
		{
			"bufferView":51,
			"componentType":5126,
			"count":2,
			"type":"VEC3"
		},
		{
			"bufferView":52,
			"componentType":5126,
			"count":2,
			"type":"VEC4"
		},
		{
			"bufferView":53,
			"componentType":5126,
			"count":2,
			"type":"VEC3"
		},
		{
			"bufferView":54,
			"componentType":5126,
			"count":2,
			"type":"VEC4"
		},
		{
			"bufferView":55,
			"componentType":5126,
			"count":2,
			"type":"VEC3"
		},
		{
			"bufferView":56,
			"componentType":5126,
			"count":2,
			"type":"VEC4"
		},
		{
			"bufferView":57,
			"componentType":5126,
			"count":2,
			"type":"VEC3"
		},
		{
			"bufferView":58,
			"componentType":5126,
			"count":2,
			"type":"VEC4"
		},
		{
			"bufferView":59,
			"componentType":5126,
			"count":2,
			"type":"VEC3"
		},
		{
			"bufferView":60,
			"componentType":5126,
			"count":2,
			"type":"VEC4"
		},
		{
			"bufferView":61,
			"componentType":5126,
			"count":2,
			"type":"VEC3"
		},
		{
			"bufferView":62,
			"componentType":5126,
			"count":2,
			"type":"VEC3"
		},
		{
			"bufferView":63,
			"componentType":5126,
			"count":2,
			"type":"VEC4"
		},
		{
			"bufferView":64,
			"componentType":5126,
			"count":2,
			"type":"VEC3"
		},
		{
			"bufferView":65,
			"componentType":5126,
			"count":2,
			"type":"VEC3"
		},
		{
			"bufferView":66,
			"componentType":5126,
			"count":2,
			"type":"VEC4"
		},
		{
			"bufferView":67,
			"componentType":5126,
			"count":2,
			"type":"VEC3"
		},
		{
			"bufferView":68,
			"componentType":5126,
			"count":2,
			"type":"VEC3"
		},
		{
			"bufferView":69,
			"componentType":5126,
			"count":2,
			"type":"VEC4"
		},
		{
			"bufferView":70,
			"componentType":5126,
			"count":2,
			"type":"VEC3"
		},
		{
			"bufferView":71,
			"componentType":5126,
			"count":2,
			"type":"VEC3"
		},
		{
			"bufferView":72,
			"componentType":5126,
			"count":2,
			"type":"VEC4"
		},
		{
			"bufferView":73,
			"componentType":5126,
			"count":2,
			"type":"VEC3"
		},
		{
			"bufferView":74,
			"componentType":5126,
			"count":2,
			"type":"VEC4"
		},
		{
			"bufferView":75,
			"componentType":5126,
			"count":2,
			"type":"VEC3"
		},
		{
			"bufferView":76,
			"componentType":5126,
			"count":2,
			"type":"VEC3"
		},
		{
			"bufferView":77,
			"componentType":5126,
			"count":2,
			"type":"VEC4"
		},
		{
			"bufferView":78,
			"componentType":5126,
			"count":2,
			"type":"VEC3"
		},
		{
			"bufferView":79,
			"componentType":5126,
			"count":2,
			"type":"VEC4"
		},
		{
			"bufferView":80,
			"componentType":5126,
			"count":2,
			"type":"VEC3"
		},
		{
			"bufferView":81,
			"componentType":5126,
			"count":2,
			"type":"VEC4"
		},
		{
			"bufferView":82,
			"componentType":5126,
			"count":2,
			"type":"VEC3"
		},
		{
			"bufferView":83,
			"componentType":5126,
			"count":2,
			"type":"VEC3"
		},
		{
			"bufferView":84,
			"componentType":5126,
			"count":2,
			"type":"VEC4"
		},
		{
			"bufferView":85,
			"componentType":5126,
			"count":2,
			"type":"VEC3"
		},
		{
			"bufferView":86,
			"componentType":5126,
			"count":2,
			"type":"VEC4"
		},
		{
			"bufferView":87,
			"componentType":5126,
			"count":2,
			"type":"VEC3"
		},
		{
			"bufferView":88,
			"componentType":5126,
			"count":2,
			"type":"VEC4"
		},
		{
			"bufferView":89,
			"componentType":5126,
			"count":2,
			"type":"VEC3"
		},
		{
			"bufferView":90,
			"componentType":5126,
			"count":2,
			"type":"VEC4"
		},
		{
			"bufferView":91,
			"componentType":5126,
			"count":2,
			"type":"VEC3"
		},
		{
			"bufferView":92,
			"componentType":5126,
			"count":2,
			"max":[
				4.166666666666667
			],
			"min":[
				0
			],
			"type":"SCALAR"
		},
		{
			"bufferView":93,
			"componentType":5126,
			"count":2,
			"type":"VEC3"
		},
		{
			"bufferView":94,
			"componentType":5126,
			"count":2,
			"type":"VEC4"
		},
		{
			"bufferView":95,
			"componentType":5126,
			"count":2,
			"type":"VEC3"
		}
	],
	"bufferViews":[
		{
			"buffer":0,
			"byteLength":1152,
			"byteOffset":0,
			"target":34962
		},
		{
			"buffer":0,
			"byteLength":1152,
			"byteOffset":1152,
			"target":34962
		},
		{
			"buffer":0,
			"byteLength":768,
			"byteOffset":2304,
			"target":34962
		},
		{
			"buffer":0,
			"byteLength":360,
			"byteOffset":3072,
			"target":34963
		},
		{
			"buffer":0,
			"byteLength":420,
			"byteOffset":3432,
			"target":34962
		},
		{
			"buffer":0,
			"byteLength":420,
			"byteOffset":3852,
			"target":34962
		},
		{
			"buffer":0,
			"byteLength":280,
			"byteOffset":4272,
			"target":34962
		},
		{
			"buffer":0,
			"byteLength":140,
			"byteOffset":4552,
			"target":34962
		},
		{
			"buffer":0,
			"byteLength":560,
			"byteOffset":4692,
			"target":34962
		},
		{
			"buffer":0,
			"byteLength":288,
			"byteOffset":5252,
			"target":34963
		},
		{
			"buffer":0,
			"byteLength":1984,
			"byteOffset":5540
		},
		{
			"buffer":0,
			"byteLength":8,
			"byteOffset":7524
		},
		{
			"buffer":0,
			"byteLength":24,
			"byteOffset":7532
		},
		{
			"buffer":0,
			"byteLength":1004,
			"byteOffset":7556
		},
		{
			"buffer":0,
			"byteLength":4016,
			"byteOffset":8560
		},
		{
			"buffer":0,
			"byteLength":24,
			"byteOffset":12576
		},
		{
			"buffer":0,
			"byteLength":24,
			"byteOffset":12600
		},
		{
			"buffer":0,
			"byteLength":4016,
			"byteOffset":12624
		},
		{
			"buffer":0,
			"byteLength":24,
			"byteOffset":16640
		},
		{
			"buffer":0,
			"byteLength":24,
			"byteOffset":16664
		},
		{
			"buffer":0,
			"byteLength":4016,
			"byteOffset":16688
		},
		{
			"buffer":0,
			"byteLength":24,
			"byteOffset":20704
		},
		{
			"buffer":0,
			"byteLength":24,
			"byteOffset":20728
		},
		{
			"buffer":0,
			"byteLength":4016,
			"byteOffset":20752
		},
		{
			"buffer":0,
			"byteLength":24,
			"byteOffset":24768
		},
		{
			"buffer":0,
			"byteLength":24,
			"byteOffset":24792
		},
		{
			"buffer":0,
			"byteLength":4016,
			"byteOffset":24816
		},
		{
			"buffer":0,
			"byteLength":24,
			"byteOffset":28832
		},
		{
			"buffer":0,
			"byteLength":24,
			"byteOffset":28856
		},
		{
			"buffer":0,
			"byteLength":4016,
			"byteOffset":28880
		},
		{
			"buffer":0,
			"byteLength":24,
			"byteOffset":32896
		},
		{
			"buffer":0,
			"byteLength":24,
			"byteOffset":32920
		},
		{
			"buffer":0,
			"byteLength":32,
			"byteOffset":32944
		},
		{
			"buffer":0,
			"byteLength":24,
			"byteOffset":32976
		},
		{
			"buffer":0,
			"byteLength":24,
			"byteOffset":33000
		},
		{
			"buffer":0,
			"byteLength":32,
			"byteOffset":33024
		},
		{
			"buffer":0,
			"byteLength":24,
			"byteOffset":33056
		},
		{
			"buffer":0,
			"byteLength":24,
			"byteOffset":33080
		},
		{
			"buffer":0,
			"byteLength":32,
			"byteOffset":33104
		},
		{
			"buffer":0,
			"byteLength":24,
			"byteOffset":33136
		},
		{
			"buffer":0,
			"byteLength":24,
			"byteOffset":33160
		},
		{
			"buffer":0,
			"byteLength":32,
			"byteOffset":33184
		},
		{
			"buffer":0,
			"byteLength":24,
			"byteOffset":33216
		},
		{
			"buffer":0,
			"byteLength":24,
			"byteOffset":33240
		},
		{
			"buffer":0,
			"byteLength":32,
			"byteOffset":33264
		},
		{
			"buffer":0,
			"byteLength":24,
			"byteOffset":33296
		},
		{
			"buffer":0,
			"byteLength":24,
			"byteOffset":33320
		},
		{
			"buffer":0,
			"byteLength":32,
			"byteOffset":33344
		},
		{
			"buffer":0,
			"byteLength":24,
			"byteOffset":33376
		},
		{
			"buffer":0,
			"byteLength":24,
			"byteOffset":33400
		},
		{
			"buffer":0,
			"byteLength":24,
			"byteOffset":33424
		},
		{
			"buffer":0,
			"byteLength":24,
			"byteOffset":33448
		},
		{
			"buffer":0,
			"byteLength":32,
			"byteOffset":33472
		},
		{
			"buffer":0,
			"byteLength":24,
			"byteOffset":33504
		},
		{
			"buffer":0,
			"byteLength":32,
			"byteOffset":33528
		},
		{
			"buffer":0,
			"byteLength":24,
			"byteOffset":33560
		},
		{
			"buffer":0,
			"byteLength":32,
			"byteOffset":33584
		},
		{
			"buffer":0,
			"byteLength":24,
			"byteOffset":33616
		},
		{
			"buffer":0,
			"byteLength":32,
			"byteOffset":33640
		},
		{
			"buffer":0,
			"byteLength":24,
			"byteOffset":33672
		},
		{
			"buffer":0,
			"byteLength":32,
			"byteOffset":33696
		},
		{
			"buffer":0,
			"byteLength":24,
			"byteOffset":33728
		},
		{
			"buffer":0,
			"byteLength":24,
			"byteOffset":33752
		},
		{
			"buffer":0,
			"byteLength":32,
			"byteOffset":33776
		},
		{
			"buffer":0,
			"byteLength":24,
			"byteOffset":33808
		},
		{
			"buffer":0,
			"byteLength":24,
			"byteOffset":33832
		},
		{
			"buffer":0,
			"byteLength":32,
			"byteOffset":33856
		},
		{
			"buffer":0,
			"byteLength":24,
			"byteOffset":33888
		},
		{
			"buffer":0,
			"byteLength":24,
			"byteOffset":33912
		},
		{
			"buffer":0,
			"byteLength":32,
			"byteOffset":33936
		},
		{
			"buffer":0,
			"byteLength":24,
			"byteOffset":33968
		},
		{
			"buffer":0,
			"byteLength":24,
			"byteOffset":33992
		},
		{
			"buffer":0,
			"byteLength":32,
			"byteOffset":34016
		},
		{
			"buffer":0,
			"byteLength":24,
			"byteOffset":34048
		},
		{
			"buffer":0,
			"byteLength":32,
			"byteOffset":34072
		},
		{
			"buffer":0,
			"byteLength":24,
			"byteOffset":34104
		},
		{
			"buffer":0,
			"byteLength":24,
			"byteOffset":34128
		},
		{
			"buffer":0,
			"byteLength":32,
			"byteOffset":34152
		},
		{
			"buffer":0,
			"byteLength":24,
			"byteOffset":34184
		},
		{
			"buffer":0,
			"byteLength":32,
			"byteOffset":34208
		},
		{
			"buffer":0,
			"byteLength":24,
			"byteOffset":34240
		},
		{
			"buffer":0,
			"byteLength":32,
			"byteOffset":34264
		},
		{
			"buffer":0,
			"byteLength":24,
			"byteOffset":34296
		},
		{
			"buffer":0,
			"byteLength":24,
			"byteOffset":34320
		},
		{
			"buffer":0,
			"byteLength":32,
			"byteOffset":34344
		},
		{
			"buffer":0,
			"byteLength":24,
			"byteOffset":34376
		},
		{
			"buffer":0,
			"byteLength":32,
			"byteOffset":34400
		},
		{
			"buffer":0,
			"byteLength":24,
			"byteOffset":34432
		},
		{
			"buffer":0,
			"byteLength":32,
			"byteOffset":34456
		},
		{
			"buffer":0,
			"byteLength":24,
			"byteOffset":34488
		},
		{
			"buffer":0,
			"byteLength":32,
			"byteOffset":34512
		},
		{
			"buffer":0,
			"byteLength":24,
			"byteOffset":34544
		},
		{
			"buffer":0,
			"byteLength":8,
			"byteOffset":34568
		},
		{
			"buffer":0,
			"byteLength":24,
			"byteOffset":34576
		},
		{
			"buffer":0,
			"byteLength":32,
			"byteOffset":34600
		},
		{
			"buffer":0,
			"byteLength":24,
			"byteOffset":34632
		}
	],
	"samplers":[
		{
			"magFilter":9729,
			"minFilter":9987,
			"wrapS":33071,
			"wrapT":33071
		}
	],
	"buffers":[
		{
			"byteLength":34656,
			"uri":"flag.bin"
		}
	]
}
